<?xml version="1.0" standalone="no"?>
<!DOCTYPE svg PUBLIC "-//W3C//DTD SVG 20010904//EN"
 "http://www.w3.org/TR/2001/REC-SVG-20010904/DTD/svg10.dtd">
<svg version="1.0" xmlns="http://www.w3.org/2000/svg"
 width="1440.000000pt" height="1440.000000pt" viewBox="0 0 1440.000000 1440.000000"
 preserveAspectRatio="xMidYMid meet">
<metadata>
Created by potrace 1.14, written by Peter Selinger 2001-2017
</metadata>
<g transform="translate(0.000000,1440.000000) scale(0.100000,-0.100000)"
fill="#000000" stroke="none">
<path d="M7030 14313 c-592 -63 -985 -170 -1540 -422 -161 -74 -229 -110 -465
-248 -352 -207 -434 -259 -795 -504 -909 -619 -1440 -1098 -1899 -1714 -58
-78 -111 -150 -116 -160 -15 -25 -36 -16 -152 61 -95 62 -98 63 -106 41 -16
-40 -1 -197 26 -280 l25 -77 -73 -108 c-104 -153 -197 -320 -344 -617 -157
-316 -232 -492 -299 -695 -190 -582 -261 -993 -267 -1549 l-3 -275 -29 -14
c-147 -78 -779 -298 -965 -337 -23 -4 -28 -11 -28 -35 0 -23 5 -30 19 -30 33
0 459 136 638 204 208 78 364 144 583 243 90 42 250 109 355 150 104 41 195
77 200 79 7 3 9 -66 7 -198 -4 -199 10 -426 29 -475 6 -18 15 -24 32 -21 26 4
25 -19 8 288 -8 155 -9 245 -1 320 5 58 11 179 13 270 5 258 65 560 194 980
103 337 351 893 439 987 17 18 28 36 25 39 -3 4 0 4 7 0 7 -5 11 -14 8 -22 -3
-8 0 -11 9 -7 8 3 12 9 9 14 -3 5 2 9 11 9 8 0 20 -11 25 -25 7 -18 17 -25 38
-25 15 0 37 -7 48 -15 12 -8 24 -11 28 -8 6 6 86 -16 96 -27 17 -18 53 -31 60
-21 4 8 15 5 34 -10 23 -18 30 -20 37 -8 7 11 9 11 9 -3 0 -14 9 -18 41 -18
28 0 38 -4 33 -12 -4 -7 -3 -8 4 -4 13 8 122 -21 122 -33 0 -3 12 -8 26 -9 15
-1 50 -9 78 -18 28 -9 67 -18 86 -20 19 -3 40 -7 47 -9 14 -5 63 17 63 28 0 4
5 7 10 7 6 0 10 -9 10 -19 0 -18 2 -19 30 -5 25 13 30 21 30 53 0 24 7 42 19
53 12 10 18 24 14 37 -4 17 -7 18 -19 6 -8 -7 -14 -21 -14 -29 0 -9 -4 -16
-10 -16 -5 0 -10 9 -10 19 0 11 -5 23 -10 26 -6 4 2 18 20 35 16 15 30 35 30
44 0 9 7 16 15 16 9 0 27 7 40 16 23 15 25 15 25 -1 0 -9 6 -15 13 -12 6 2 11
16 10 31 -2 27 12 36 20 14 3 -9 8 -6 13 7 4 11 21 30 36 43 21 18 26 28 18
37 -14 17 13 28 29 12 8 -8 11 -8 11 0 0 7 -9 14 -20 18 -11 3 -29 20 -41 36
-12 17 -27 28 -34 25 -7 -2 -16 2 -19 11 -4 8 -13 13 -21 9 -8 -3 -14 -1 -12
5 1 6 -7 16 -18 22 -10 7 -25 18 -33 25 -7 6 -16 12 -20 12 -4 0 -20 11 -36
25 -17 14 -75 56 -129 93 -102 68 -111 79 -122 145 -5 30 -10 37 -28 37 -22 0
-23 -1 -22 -142 0 -130 -2 -147 -23 -190 -27 -55 -83 -108 -115 -108 -34 0
-67 28 -88 74 -29 64 -25 104 15 146 48 49 106 140 106 166 0 23 -20 37 -37
26 -5 -4 -30 -39 -56 -79 -27 -43 -65 -86 -94 -107 -61 -45 -188 -95 -275
-109 -206 -32 -419 143 -578 476 -52 109 -90 234 -90 299 0 40 10 48 30 23 7
-9 42 -32 77 -51 35 -20 68 -45 74 -56 6 -12 17 -17 26 -14 8 3 55 -8 105 -24
143 -48 252 -63 408 -57 155 6 263 32 390 95 63 31 75 41 78 65 4 30 -13 35
-51 15 -21 -11 -21 -10 -7 8 32 42 125 150 138 161 8 7 19 10 23 7 5 -3 9 3 9
14 0 10 13 31 30 47 16 16 30 24 30 18 0 -6 -7 -13 -15 -17 -8 -3 -15 -16 -15
-28 0 -19 -2 -20 -11 -8 -8 12 -9 10 -7 -10 2 -15 16 -33 38 -47 19 -12 40
-27 47 -33 7 -5 15 -10 19 -10 4 0 17 -9 28 -19 12 -11 37 -28 56 -39 19 -11
34 -25 33 -31 -2 -6 3 -11 11 -11 8 0 23 -10 33 -23 10 -12 26 -21 35 -19 10
2 34 -14 57 -38 22 -23 45 -39 51 -35 5 3 10 -1 10 -9 0 -14 42 -45 47 -35 1
2 11 -4 23 -13 11 -10 35 -24 54 -32 19 -8 40 -23 47 -34 7 -11 18 -18 24 -15
7 2 15 -3 18 -11 4 -9 15 -16 26 -16 11 0 25 -10 32 -21 6 -12 14 -17 18 -12
4 6 15 5 28 -2 13 -7 20 -14 18 -17 -3 -3 1 -8 10 -12 9 -3 14 -2 11 3 -8 12
48 0 56 -13 4 -6 11 -11 15 -12 4 0 16 -4 26 -8 28 -13 45 -1 40 28 -4 22 -2
26 16 26 12 0 35 -7 51 -15 29 -15 30 -15 30 5 0 24 28 39 40 20 6 -9 12 -10
26 -1 18 10 18 10 1 11 -25 0 -50 27 -43 45 3 8 14 15 25 15 11 0 22 9 26 20
7 22 40 27 48 8 4 -10 8 -9 16 2 7 9 7 16 1 18 -12 4 -3 22 11 22 5 0 9 -11 9
-25 0 -14 5 -25 10 -25 6 0 10 8 10 18 0 10 9 24 20 32 28 20 25 30 -10 30
-16 0 -30 3 -30 6 0 14 31 34 54 34 17 0 26 6 26 16 0 26 26 44 64 44 33 0 36
2 30 24 -3 13 -1 27 5 30 6 4 11 19 11 34 0 19 -3 23 -11 15 -11 -11 -49 -6
-49 6 0 3 5 13 10 21 9 13 11 13 19 0 6 -8 14 -11 18 -6 4 5 2 11 -4 13 -7 3
-13 13 -13 23 0 9 -7 23 -15 30 -8 7 -15 24 -15 39 0 20 -2 23 -10 11 -8 -12
-10 -12 -10 5 0 11 -18 53 -40 93 -22 40 -40 79 -40 86 0 7 -11 26 -25 42 -13
15 -29 42 -36 59 -20 54 -43 95 -54 95 -5 1 -28 39 -50 85 -22 46 -43 85 -48
85 -4 0 -12 11 -17 25 -5 14 -14 25 -20 25 -5 0 -10 9 -10 19 0 10 -7 21 -15
25 -8 3 -15 12 -15 21 0 8 -4 15 -10 15 -16 0 -50 43 -51 64 0 21 -1 21 -9 1
-8 -19 -9 -19 -9 3 -1 12 4 22 9 22 7 0 7 6 1 19 -9 17 3 29 97 98 270 200
351 248 422 252 13 1 13 2 0 11 -13 8 -13 10 1 10 11 0 17 -9 17 -25 0 -14 -5
-25 -10 -25 -5 0 -6 5 -3 10 3 6 -1 10 -9 10 -16 0 -29 -16 -33 -42 -2 -12 3
-15 19 -10 17 4 20 2 15 -11 -6 -17 43 -147 63 -167 8 -8 38 -73 45 -97 3 -13
11 -23 16 -23 6 0 7 -4 4 -10 -3 -5 -2 -10 3 -10 5 0 15 -14 22 -31 7 -17 18
-36 24 -42 15 -15 66 -121 66 -135 0 -7 3 -12 8 -12 11 0 72 -105 72 -124 0
-9 5 -16 11 -16 5 0 8 -4 4 -9 -3 -5 3 -12 13 -15 10 -4 24 -22 32 -40 7 -19
22 -37 33 -40 18 -4 19 -7 6 -22 -13 -15 -11 -16 11 -10 16 5 20 4 12 -2 -18
-12 25 -81 51 -82 10 0 26 -7 35 -16 12 -13 17 -14 20 -4 3 7 20 28 39 46 31
30 41 34 89 34 30 0 54 5 54 10 0 6 9 10 20 10 22 0 27 -16 8 -22 -9 -3 -8 -9
5 -22 18 -18 38 -14 33 7 -1 7 -1 9 1 5 11 -20 31 -4 42 34 9 28 15 37 21 28
4 -7 13 -9 19 -6 6 4 9 11 6 16 -3 5 0 12 6 15 6 4 8 20 5 39 -3 17 -2 48 3
69 7 29 6 40 -4 43 -9 4 -12 21 -9 56 2 28 -1 57 -6 63 -6 7 -8 27 -6 46 3 20
-2 44 -10 57 -8 13 -12 31 -9 42 3 10 1 21 -5 25 -6 3 -8 11 -5 16 4 5 1 9 -6
9 -8 0 -8 4 1 15 9 11 10 15 0 15 -8 0 -9 10 -5 32 6 26 5 30 -9 25 -13 -5
-16 0 -15 26 2 45 -18 158 -31 171 -5 5 -10 22 -10 37 0 35 -30 181 -40 194
-10 13 -24 112 -21 147 1 17 -4 30 -16 37 -14 8 -14 10 -3 11 12 0 13 2 1 9
-11 7 -9 12 10 24 41 27 197 87 394 154 357 120 354 119 890 213 286 50 329
57 435 69 47 6 141 18 210 26 96 12 227 15 560 15 239 0 449 -2 465 -5 17 -2
75 -7 130 -10 55 -4 168 -15 250 -26 83 -10 156 -19 163 -19 7 0 11 -4 8 -9
-4 -5 2 -7 12 -4 17 4 260 -40 292 -54 8 -3 22 -7 30 -9 33 -7 181 -43 340
-84 149 -38 390 -92 480 -107 19 -3 44 -12 55 -19 11 -7 41 -16 67 -19 42 -6
47 -10 43 -29 -4 -18 -35 -195 -35 -201 0 -1 -35 -8 -77 -14 -184 -29 -431
-96 -598 -163 -104 -42 -115 -46 -310 -135 -66 -30 -151 -69 -190 -86 -210
-93 -627 -318 -865 -467 -312 -195 -623 -442 -829 -658 -25 -26 -86 -91 -137
-144 -286 -300 -640 -762 -821 -1071 -120 -206 -193 -372 -193 -444 0 -26 -9
-32 -98 -75 -166 -79 -323 -214 -501 -432 -64 -78 -211 -291 -211 -306 0 -4
-17 -11 -37 -15 -63 -11 -283 -74 -373 -107 -393 -141 -1009 -554 -1610 -1081
-322 -282 -808 -822 -1124 -1249 l-79 -106 -52 83 c-115 183 -275 363 -393
444 -192 130 -525 235 -862 271 -117 13 -558 16 -705 5 l-95 -7 0 -339 0 -339
31 0 c27 0 49 -17 138 -102 295 -285 571 -475 857 -588 88 -35 256 -91 332
-110 l52 -14 59 -185 c33 -102 98 -310 146 -461 215 -687 262 -814 426 -1145
105 -214 345 -629 457 -790 168 -243 348 -431 619 -648 299 -238 614 -392 963
-471 226 -51 668 -70 970 -42 194 19 382 45 538 77 57 11 106 19 108 16 2 -2
-30 -46 -72 -98 -289 -355 -521 -698 -983 -1454 l-116 -190 -4 -77 -3 -78 36
0 36 0 0 71 c0 63 4 78 37 137 34 61 183 303 314 509 l52 83 76 -67 c106 -94
154 -136 177 -153 94 -74 125 -101 167 -143 26 -27 47 -53 47 -58 0 -5 20 -30
45 -56 24 -27 63 -67 85 -91 22 -24 40 -47 40 -52 0 -6 6 -10 14 -10 20 0 26
-25 23 -97 -2 -59 5 -84 20 -69 4 4 9 37 10 73 3 92 13 92 13 0 l0 -77 30 0
30 0 0 65 c0 37 4 65 10 65 6 0 10 -28 10 -65 l0 -65 260 0 259 0 6 33 c3 17
4 43 2 57 -3 24 -53 126 -116 236 -31 54 -35 84 -13 97 11 7 10 13 -2 32 -9
14 -16 31 -16 39 0 8 -10 31 -21 51 -16 27 -19 39 -10 48 16 16 14 30 -5 23
-17 -7 -44 46 -44 87 0 13 -13 43 -30 65 -16 23 -30 46 -30 51 0 5 -7 15 -16
22 -9 7 -20 22 -25 34 -20 43 -37 67 -81 116 -10 10 -18 22 -18 25 0 3 -6 12
-12 19 -49 55 -100 134 -140 216 -47 99 -68 148 -68 159 0 5 -23 57 -50 116
-43 90 -49 109 -38 122 7 9 20 25 28 36 43 55 83 95 91 90 5 -3 6 2 3 10 -9
23 22 31 41 12 13 -12 21 -14 37 -5 22 12 178 3 178 -11 0 -16 45 -19 67 -5
27 18 50 19 56 3 4 -10 6 -10 6 0 1 18 29 15 33 -5 3 -15 4 -15 19 0 23 23
239 33 239 11 0 -8 7 -14 15 -14 8 0 15 7 15 15 0 9 9 15 24 15 14 0 28 5 31
10 5 8 11 7 21 -1 11 -9 18 -8 29 1 11 9 19 10 26 3 7 -7 22 -8 43 -2 17 5 45
9 61 8 39 -3 98 11 108 25 17 23 -6 -123 -39 -254 -47 -182 -104 -370 -175
-576 -32 -94 -59 -182 -60 -195 -1 -56 14 -111 36 -125 35 -23 39 -21 282 151
64 45 383 371 435 445 25 36 65 99 88 140 23 41 39 66 35 55 -9 -22 -22 -68
-90 -300 -25 -88 -55 -189 -66 -224 -25 -84 -25 -127 2 -141 30 -17 67 11 91
70 16 39 26 50 46 52 19 2 33 15 49 43 23 42 75 196 119 360 16 55 29 102 30
104 2 2 11 -4 20 -14 13 -13 29 -16 65 -13 l47 5 -20 -66 c-32 -111 -78 -321
-78 -358 0 -54 45 -93 106 -93 61 0 132 33 140 65 10 41 -3 48 -72 42 -63 -6
-64 -6 -64 19 0 24 1 24 25 8 35 -23 116 -13 167 21 69 46 41 89 -51 78 -45
-5 -51 -4 -51 13 0 20 40 189 63 264 l14 45 88 22 c49 13 93 29 97 35 5 7 7
25 5 40 -3 22 1 28 16 28 14 0 18 -5 14 -18 -3 -9 -21 -73 -41 -140 -40 -138
-106 -446 -106 -496 0 -20 8 -40 20 -51 18 -16 21 -17 44 -1 15 10 30 33 37
58 6 25 23 54 40 68 26 23 33 43 69 205 34 153 64 271 124 478 13 48 0 72 -40
72 -27 0 -39 -12 -80 -81 -10 -16 -12 -16 -41 5 -28 21 -34 22 -92 11 -35 -6
-65 -9 -68 -6 -3 3 4 33 16 67 24 71 27 112 9 126 -18 14 -59 23 -52 12 3 -5
1 -9 -4 -9 -5 0 -15 -13 -22 -30 -7 -16 -26 -38 -44 -48 -24 -14 -38 -37 -61
-95 -28 -71 -33 -77 -71 -92 -49 -19 -79 -48 -70 -70 4 -11 -3 -19 -22 -26
-15 -6 -35 -18 -44 -26 -10 -9 -18 -14 -18 -12 0 18 45 159 65 205 37 83 30
124 -20 124 -16 0 -14 3 10 16 17 8 41 24 55 35 14 11 19 17 11 13 -9 -4 -12
-3 -7 4 4 6 14 8 22 5 8 -3 25 -1 37 5 12 6 43 16 70 23 26 8 47 16 47 20 0 4
16 10 36 14 21 3 46 13 58 20 12 8 33 15 47 17 15 2 33 9 40 15 8 6 28 15 44
19 17 4 42 15 57 25 14 11 36 19 47 19 12 0 21 4 21 9 0 5 9 11 21 14 11 3 23
15 26 26 3 12 9 21 14 21 5 0 6 -7 3 -15 -8 -19 0 -19 35 0 16 8 31 11 35 8 3
-4 6 3 6 14 0 16 -5 19 -27 16 -35 -5 -12 11 29 21 23 5 25 3 20 -16 l-5 -22
30 22 c17 12 41 22 53 22 18 0 20 3 11 14 -9 10 -8 16 3 26 9 6 19 9 25 6 5
-4 12 3 16 13 4 12 12 18 21 14 7 -3 14 0 14 7 0 6 4 9 9 5 6 -3 20 8 32 25
13 16 28 30 33 30 6 0 26 15 45 33 19 17 48 42 65 55 60 44 137 125 132 138
-3 8 0 11 9 8 9 -4 15 7 20 35 4 23 11 39 16 35 5 -3 10 0 10 5 1 6 3 16 4 21
1 6 3 19 4 31 0 11 10 23 20 26 11 3 25 17 31 33 6 15 22 32 36 38 13 7 24 18
24 25 0 8 25 33 56 56 44 33 59 39 65 29 5 -7 9 -8 9 -3 0 10 23 22 83 44 15
6 30 18 33 26 4 8 17 15 30 15 13 0 24 4 24 9 0 5 8 8 17 7 11 0 19 7 21 20 2
16 8 20 22 17 19 -5 49 8 81 35 11 9 23 17 27 17 12 1 107 50 110 58 2 4 9 7
15 7 7 0 26 14 44 30 18 17 40 30 51 30 10 0 27 9 37 20 10 11 28 20 40 20 12
0 41 14 63 30 23 17 42 28 42 25 0 -2 17 5 38 17 20 12 54 30 75 40 20 10 37
23 37 29 0 6 4 8 9 4 5 -3 22 6 37 20 24 22 43 30 67 26 4 0 7 5 7 13 0 14 69
61 77 52 3 -2 13 4 24 15 10 10 25 19 33 19 8 0 28 13 45 29 32 30 103 69 139
76 26 5 79 32 87 45 3 5 17 10 31 10 14 0 32 7 40 15 9 8 24 15 35 15 11 0 22
7 25 15 4 8 14 15 24 15 9 0 29 9 43 20 14 11 39 23 56 26 17 4 31 11 31 16 0
5 9 6 20 3 13 -4 22 -1 26 9 3 9 10 13 16 10 5 -3 15 2 22 12 8 11 15 13 19 6
4 -5 16 -8 27 -5 22 6 27 23 8 24 -7 0 -2 4 10 10 13 5 28 6 34 3 5 -3 18 3
29 15 11 12 16 21 12 21 -10 0 19 20 30 20 5 0 5 -5 1 -11 -10 -16 38 -1 52
17 8 9 14 10 22 2 7 -7 17 -6 33 6 13 9 19 16 14 16 -5 0 1 7 13 16 18 12 26
13 37 4 12 -10 16 -9 21 3 3 9 19 19 35 22 16 4 29 11 29 15 0 5 7 7 15 4 8
-4 15 -1 15 5 0 6 7 11 16 11 10 0 14 6 10 15 -7 18 5 20 22 3 8 -8 15 -9 20
-3 4 6 21 11 37 13 46 4 55 10 55 31 0 18 5 20 50 17 28 -2 50 0 50 5 0 5 9 9
20 9 11 0 20 -4 20 -10 0 -5 5 -10 10 -10 6 0 10 7 10 15 0 17 16 20 23 5 3
-6 4 -5 3 2 -2 8 -17 12 -40 11 -33 -1 -36 0 -21 11 10 7 28 11 41 8 16 -3 24
0 24 9 0 9 3 10 11 2 19 -19 58 -3 61 26 4 34 22 34 26 0 3 -25 5 -26 33 -16
16 6 29 16 29 23 0 10 62 34 88 34 6 0 13 -8 15 -17 4 -14 5 -12 6 5 1 13 7
22 17 22 10 0 14 -6 10 -15 -9 -23 6 -18 32 12 17 20 25 24 31 15 6 -10 12 -4
21 17 10 25 18 31 37 28 13 -2 28 -10 33 -17 7 -12 10 -12 16 3 4 12 13 15 29
11 14 -3 28 1 39 11 9 9 26 15 39 14 30 -3 57 10 57 27 0 19 20 13 42 -11 10
-12 17 -15 18 -7 0 6 10 12 23 13 21 1 21 1 -3 9 -24 8 -24 8 -2 9 13 1 22 7
22 17 0 13 3 14 15 4 8 -7 13 -15 10 -19 -2 -4 6 -7 18 -6 12 1 28 12 34 26 7
13 13 19 13 12 0 -14 30 -6 43 11 5 7 14 3 26 -11 19 -23 34 -21 24 3 -3 9 2
14 17 14 13 0 29 8 36 18 13 16 13 16 14 0 0 -22 19 -24 27 -2 3 9 16 15 32
14 42 -3 53 -1 46 10 -3 5 -1 10 4 10 6 0 11 -3 11 -7 0 -5 14 -9 30 -10 17
-1 30 2 30 8 0 6 -5 7 -12 3 -7 -4 -8 -3 -4 4 5 9 13 9 26 2 12 -6 21 -7 25 0
3 5 12 7 20 3 9 -3 15 1 15 8 0 11 3 11 10 -1 6 -10 10 -11 10 -2 0 6 5 12 11
12 5 0 7 -5 3 -12 -4 -7 -3 -8 4 -4 6 4 130 -31 274 -77 145 -47 335 -106 423
-132 209 -62 334 -111 534 -212 90 -46 166 -83 168 -83 1 0 3 12 3 28 0 25
-11 33 -147 101 -240 120 -348 161 -686 261 -626 184 -873 307 -1462 731 -88
63 -203 142 -255 175 -141 90 -511 299 -705 399 -321 166 -457 279 -541 452
-89 183 -83 346 25 729 51 180 90 279 151 379 66 109 89 138 172 223 129 130
304 232 493 286 91 27 543 129 624 141 39 6 42 5 38 -11 -12 -40 -27 -140 -27
-178 0 -49 98 -236 215 -411 234 -350 641 -765 866 -885 l57 -30 8 -77 c7 -84
2 -209 -22 -493 -18 -205 -12 -280 31 -397 57 -158 196 -336 333 -427 141 -93
327 -174 494 -215 72 -18 306 -61 331 -61 4 0 7 13 7 29 0 28 -2 30 -55 36
-30 4 -55 11 -55 15 0 7 10 6 78 -6 l32 -6 0 428 c0 236 -4 444 -9 461 -5 18
-19 42 -30 54 -12 13 -21 29 -21 36 0 7 -6 13 -13 13 -8 0 -24 11 -37 25 -13
14 -29 25 -36 25 -7 0 -20 7 -29 16 -9 9 -19 13 -23 9 -4 -4 -1 -10 6 -12 11
-4 18 -43 7 -43 -10 0 -54 54 -60 73 -9 26 -28 21 -19 -5 4 -13 9 -25 13 -28
3 -3 12 -15 19 -28 10 -19 10 -23 -3 -28 -8 -4 -15 -12 -15 -20 0 -7 -8 -17
-17 -23 -26 -14 -6 -27 45 -30 7 -1 11 -5 7 -10 -3 -5 -16 -8 -29 -5 -35 6
-40 -21 -11 -64 14 -20 25 -41 25 -45 0 -13 72 -127 80 -127 4 0 7 -17 8 -37
1 -20 6 -39 12 -43 6 -4 6 -18 -2 -41 -21 -63 -33 -89 -40 -89 -4 0 -10 -16
-14 -35 -3 -19 -10 -35 -15 -35 -5 0 -9 -8 -9 -18 0 -9 -8 -22 -19 -29 -10 -6
-21 -24 -24 -40 -8 -39 -28 -64 -55 -66 -13 -1 -21 -6 -18 -14 3 -6 -5 -13
-17 -15 -12 -2 -21 -9 -19 -16 1 -6 -5 -12 -13 -12 -8 0 -15 -7 -15 -16 0 -9
-5 -12 -12 -8 -8 5 -9 -2 -5 -24 5 -26 4 -30 -11 -25 -14 4 -13 3 3 -10 10 -8
26 -13 35 -10 12 4 12 3 2 -5 -10 -7 -5 -11 19 -16 18 -3 30 -8 28 -11 -3 -2
-26 1 -52 8 -27 7 -46 15 -44 17 3 3 -7 6 -21 6 -15 1 -44 9 -65 18 -34 15
-36 18 -22 32 24 24 20 64 -7 65 -49 3 -98 -8 -98 -21 0 -6 9 -10 19 -10 20 0
37 -17 28 -26 -8 -8 -182 88 -249 136 -127 93 -258 286 -293 431 -19 80 -19
199 0 404 8 88 15 224 15 303 0 87 4 142 10 142 5 0 29 -18 52 -41 24 -23 34
-36 22 -31 -16 9 -21 8 -21 -4 0 -7 4 -14 9 -14 4 0 8 -7 8 -16 0 -12 -4 -11
-19 7 l-18 23 0 -58 c0 -35 3 -52 8 -44 6 8 9 -1 9 -25 0 -27 7 -45 24 -62 24
-24 25 -24 48 -5 13 11 17 19 11 20 -21 0 -15 28 8 35 13 4 18 12 15 21 -3 8
-2 13 3 10 5 -3 11 1 15 9 5 14 -5 20 -27 16 -5 -1 -6 3 -2 9 3 5 -3 10 -14
10 -12 0 -21 -6 -21 -14 0 -8 -3 -17 -7 -19 -5 -3 -8 10 -8 28 0 26 3 31 13
23 7 -6 16 -8 20 -4 4 4 -1 12 -11 17 -9 6 -17 15 -17 22 0 7 11 0 24 -15 13
-15 26 -25 29 -22 3 3 13 -5 24 -18 10 -13 25 -24 33 -26 8 -2 20 -9 25 -16
10 -13 16 -16 36 -16 5 0 7 -6 3 -12 -4 -7 -4 -10 1 -6 4 4 34 -6 66 -22 52
-27 59 -28 73 -14 20 20 20 27 -3 72 -18 36 -64 173 -59 177 2 1 21 7 43 13
35 10 41 10 50 -4 6 -9 29 -40 52 -69 23 -29 39 -56 35 -60 -4 -5 -2 -5 4 -2
6 3 35 -14 65 -39 58 -48 258 -151 349 -179 30 -10 64 -22 75 -28 11 -6 34
-11 52 -13 30 -3 33 -1 33 25 0 26 -5 29 -112 65 -220 72 -397 179 -477 288
-27 36 -31 50 -31 104 0 134 82 599 140 801 36 122 75 230 120 331 29 64 31
75 18 88 -13 13 -16 13 -30 -3 -37 -41 -132 -302 -182 -498 -46 -182 -116
-601 -116 -694 l0 -39 -77 -21 c-175 -46 -284 -38 -427 34 -134 66 -251 159
-436 344 -251 252 -442 501 -594 776 -73 132 -74 138 -51 266 24 137 172 620
270 878 83 221 225 553 287 673 46 89 57 103 122 152 96 72 177 119 269 156
162 65 198 62 652 -39 254 -56 447 -91 511 -91 47 0 54 2 54 20 0 22 10 19
-183 49 -149 23 -597 118 -610 130 -4 4 15 55 43 113 83 174 110 315 110 573
0 345 -69 655 -230 1030 -93 218 -217 418 -442 714 -244 321 -409 485 -729
723 -152 113 -238 170 -436 289 -435 262 -790 438 -1213 599 l-125 48 -12 74
c-7 40 -22 133 -35 206 l-22 132 -504 0 -504 0 6 -25 c5 -18 0 -31 -14 -45
-19 -19 -19 -21 -3 -18 14 2 18 -4 19 -24 1 -16 -3 -28 -8 -28 -5 0 -6 10 -3
23 l7 22 -17 -23 c-9 -13 -14 -26 -11 -29 10 -11 -42 -43 -61 -37 -11 4 -14 3
-7 -3 8 -5 -3 -19 -35 -43 -286 -215 -411 -324 -509 -445 -28 -35 -31 -36 -22
-12 9 26 6 31 -14 28 -10 -2 -26 19 -26 35 0 6 11 16 24 22 16 7 26 21 28 39
2 19 8 28 20 27 10 -1 16 1 14 5 -5 7 83 37 97 33 5 -1 6 2 2 8 -3 6 -10 8
-15 5 -5 -3 -15 3 -22 15 -7 11 -20 20 -28 20 -22 0 -40 20 -40 43 0 10 -9 21
-20 24 -11 3 -20 9 -20 14 0 4 9 13 20 19 22 12 27 30 8 30 -6 0 -22 10 -35
22 -19 18 -26 20 -32 9 -10 -16 -51 -5 -51 14 0 22 -28 25 -33 3 -5 -18 -10
-19 -39 -13 -36 9 -191 16 -458 21 -217 5 -285 9 -285 17 0 4 59 37 130 73
206 105 295 154 295 165 0 8 -1167 11 -1250 2z m805 -253 c-3 -5 -12 -10 -18
-10 -7 0 -6 4 3 10 19 12 23 12 15 0z m898 -499 c-10 -17 -22 -31 -26 -31 -5
0 -6 -4 -2 -9 3 -5 0 -13 -6 -17 -8 -5 -9 -3 -4 6 6 10 4 12 -10 7 -9 -4 -3 6
15 23 18 17 29 34 24 41 -4 8 -3 9 4 5 7 -4 12 -2 12 5 0 7 2 10 5 7 3 -3 -2
-19 -12 -37z m-1336 -37 c-3 -3 -12 -4 -19 -1 -8 3 -5 6 6 6 11 1 17 -2 13 -5z
m-199 -31 c-10 -2 -26 -2 -35 0 -10 3 -2 5 17 5 19 0 27 -2 18 -5z m3628 -670
c79 -32 144 -61 144 -65 0 -4 -15 -8 -32 -9 -46 0 -103 -21 -103 -37 0 -18 61
-38 150 -51 102 -15 185 -34 185 -42 0 -4 -7 -10 -16 -13 -12 -5 -14 -10 -5
-20 6 -7 8 -16 4 -19 -3 -4 6 -7 20 -7 32 0 37 -26 7 -35 -24 -7 -26 -28 -5
-45 11 -9 26 -9 65 -1 68 15 72 14 65 -9 -6 -20 2 -25 33 -21 10 2 10 -4 -2
-26 -19 -36 -248 -325 -261 -330 -6 -1 -18 17 -28 41 -30 72 -141 262 -200
340 -56 74 -131 153 -205 216 l-41 35 30 78 c17 42 35 77 41 77 5 0 74 -26
154 -57z m-5806 -27 c-7 -7 -14 -6 -21 1 -9 9 -7 12 9 10 14 -1 18 -5 12 -11z
m5265 -32 c48 -23 107 -66 172 -123 84 -75 136 -129 269 -283 71 -82 169 -242
158 -260 -4 -6 -3 -8 3 -5 5 3 17 -9 26 -27 13 -29 14 -37 2 -52 -7 -10 -11
-24 -8 -31 5 -14 -24 -11 -54 5 -13 7 -24 6 -38 -5 -20 -14 -20 -15 -1 -28 17
-13 17 -15 3 -21 -10 -3 -17 -17 -17 -29 0 -13 -4 -26 -9 -30 -11 -6 -9 35 3
54 4 7 5 15 1 19 -3 3 -10 1 -14 -6 -4 -7 -15 -10 -24 -6 -20 7 -23 -17 -6
-65 8 -24 16 -31 28 -26 13 5 14 4 4 -6 -14 -14 -18 -33 -5 -26 4 3 8 -10 9
-29 1 -19 9 -48 17 -65 9 -17 13 -35 10 -40 -3 -5 0 -18 6 -30 7 -11 13 -44
14 -72 2 -29 7 -51 12 -50 5 1 10 -6 11 -15 1 -9 7 -37 13 -62 6 -25 13 -60
15 -79 2 -19 7 -37 12 -40 4 -3 10 -17 12 -31 1 -14 -15 9 -36 50 -22 41 -47
76 -55 78 -16 3 -47 -21 -307 -243 -177 -151 -423 -356 -489 -407 -19 -15 -38
-25 -43 -23 -4 3 -11 0 -15 -6 -5 -8 -2 -10 7 -4 8 4 1 -5 -16 -19 -16 -15
-47 -42 -69 -61 -21 -19 -43 -32 -49 -28 -6 3 -7 1 -3 -5 7 -11 -82 -79 -97
-74 -5 1 -6 -2 -3 -7 4 -5 -6 -19 -21 -31 -32 -24 -110 -89 -129 -107 -7 -7
-15 -13 -18 -13 -3 0 -16 -10 -29 -22 -46 -45 -99 -88 -107 -88 -5 0 -10 -4
-12 -8 -1 -5 -77 -74 -168 -153 -91 -79 -176 -154 -190 -167 -14 -13 -135
-119 -270 -235 -135 -116 -308 -268 -385 -337 -77 -70 -214 -188 -305 -262
-91 -75 -178 -149 -194 -165 -16 -15 -26 -21 -22 -13 4 8 -1 5 -10 -7 -9 -13
-23 -23 -31 -23 -8 0 -11 -4 -8 -10 6 -9 2 -12 -27 -14 -17 -1 -37 -19 -31
-28 2 -4 -4 -5 -14 -1 -16 6 -17 5 -3 -12 14 -17 14 -18 -7 -6 -19 10 -23 9
-23 -4 0 -8 -7 -15 -15 -15 -9 0 -12 -6 -8 -17 4 -11 3 -14 -5 -9 -7 4 -12 3
-12 -3 0 -5 4 -11 9 -13 5 -1 3 -12 -5 -22 -13 -19 -14 -19 -14 7 0 15 -4 27
-10 27 -5 0 -10 -4 -10 -9 0 -5 -12 -13 -28 -19 -21 -7 -31 -6 -42 7 -8 8 -15
20 -15 26 0 5 -10 11 -22 13 -16 2 -25 13 -31 35 -9 33 -6 49 6 31 4 -6 23
-11 42 -11 33 0 62 20 134 93 12 12 107 95 211 185 105 89 255 222 335 294 80
72 228 202 330 290 102 87 262 224 355 304 201 173 498 424 634 534 53 43 105
86 116 95 123 103 435 360 490 404 39 30 117 97 175 147 58 50 168 144 245
210 77 65 149 128 159 140 38 42 12 190 -55 324 -36 71 -68 88 -114 61 -37
-22 -142 -104 -256 -201 -47 -40 -89 -73 -93 -73 -4 0 -19 -12 -34 -26 -15
-14 -39 -33 -54 -42 -16 -9 -28 -19 -28 -23 0 -4 -30 -31 -67 -61 -86 -67
-103 -81 -117 -93 -63 -56 -114 -93 -120 -87 -4 4 -6 2 -4 -4 3 -12 -144 -134
-162 -134 -5 0 -10 -4 -10 -9 0 -5 -75 -72 -167 -147 -93 -76 -208 -172 -258
-214 -271 -228 -369 -311 -450 -383 -49 -44 -103 -92 -120 -106 -16 -15 -127
-109 -245 -211 -118 -101 -298 -258 -400 -349 -322 -288 -432 -381 -450 -381
-6 0 -9 4 -6 9 3 4 -7 6 -22 2 -25 -5 -25 -6 -4 -9 23 -4 29 -16 12 -27 -5 -3
-10 0 -10 7 -1 7 -7 -2 -15 -19 -8 -18 -17 -33 -20 -33 -3 0 -3 5 1 12 4 7 3
8 -5 4 -6 -4 -20 -2 -29 5 -16 13 -16 12 0 -6 16 -19 15 -21 -23 -53 -21 -18
-39 -29 -39 -24 0 6 -7 12 -15 16 -12 4 -13 2 -5 -13 7 -15 6 -20 -6 -25 -12
-5 -15 -2 -10 9 3 10 2 13 -5 10 -5 -4 -7 -15 -4 -25 6 -17 -9 -34 -30 -35 -5
-1 -9 -7 -7 -15 3 -12 1 -13 -9 -2 -7 6 -18 12 -23 12 -6 0 -5 -4 2 -8 7 -5
10 -16 6 -25 -3 -9 -10 -14 -15 -11 -6 3 -9 -21 -7 -60 1 -36 5 -61 9 -55 4 7
11 4 20 -7 8 -11 36 -39 62 -62 32 -29 41 -41 27 -37 -15 5 -20 4 -16 -4 8
-13 -13 -14 -33 -2 -9 6 -12 18 -8 32 6 22 5 23 -8 6 -11 -16 -16 -17 -35 -5
-18 11 -23 11 -34 -4 -7 -10 -24 -18 -37 -18 -21 1 -22 2 -6 11 9 5 17 17 17
24 0 17 -26 20 -35 5 -12 -20 -25 -9 -25 20 0 23 -4 30 -20 30 -15 0 -20 -7
-20 -26 0 -18 -5 -25 -17 -22 -22 4 -27 23 -10 39 16 17 11 39 -9 39 -8 0 -14
-10 -14 -24 0 -14 -4 -27 -10 -31 -13 -8 -1 -35 16 -35 8 0 14 -4 14 -10 0
-18 35 -45 53 -42 11 2 17 -3 17 -17 0 -11 14 -30 33 -43 17 -12 41 -30 51
-40 11 -10 26 -18 34 -18 7 0 28 -15 46 -32 18 -18 55 -51 81 -73 88 -75 179
-168 180 -186 1 -10 -2 -16 -7 -13 -5 4 -9 0 -7 -7 3 -25 -1 -39 -11 -39 -5 0
-7 7 -4 15 4 8 1 15 -5 15 -6 0 -11 -9 -11 -20 0 -24 -1 -24 -181 63 -160 77
-250 136 -384 251 -111 95 -199 146 -293 171 -74 19 -192 21 -253 5 -81 -22
-194 -87 -256 -147 -58 -56 -133 -160 -133 -183 0 -6 -4 -9 -8 -6 -4 2 -14 -5
-22 -17 -12 -20 -12 -21 3 -9 14 12 15 10 4 -17 -6 -16 -13 -28 -17 -26 -3 2
-7 -38 -8 -89 -6 -154 25 -248 131 -405 230 -342 427 -1077 427 -1596 0 -226
-55 -522 -120 -649 -16 -32 -30 -65 -30 -72 0 -28 -110 -255 -170 -353 -36
-57 -101 -145 -145 -196 -259 -300 -258 -299 -440 -435 -33 -25 -62 -47 -65
-50 -6 -6 -190 -144 -235 -177 -215 -154 -468 -261 -795 -338 -105 -25 -355
-38 -595 -31 -218 6 -464 29 -475 44 -3 4 -21 7 -40 7 -41 -1 -148 15 -210 32
-14 3 -32 6 -40 5 -10 -1 -11 0 -2 4 6 3 9 10 6 15 -4 6 -10 6 -18 -1 -10 -7
-25 -6 -56 5 -23 8 -45 13 -50 10 -11 -7 -80 15 -80 25 0 5 -12 7 -27 4 -22
-4 -24 -3 -14 10 10 12 9 14 -8 9 -12 -3 -21 -1 -21 6 0 6 10 11 22 11 12 0
19 3 15 6 -10 10 -58 -5 -52 -16 11 -18 -11 -11 -49 15 -40 27 -63 35 -30 10
27 -20 17 -19 -57 9 -82 31 -119 49 -119 59 0 5 -4 6 -9 2 -5 -3 -16 1 -24 9
-8 8 -18 12 -22 8 -5 -4 -5 2 -1 12 5 16 4 17 -9 6 -12 -10 -15 -10 -15 0 0 8
-3 11 -6 7 -19 -18 -385 218 -546 353 -208 173 -402 424 -383 497 23 92 201
467 298 628 268 444 943 1247 1362 1620 502 446 1077 858 1440 1031 154 73
280 118 468 166 169 43 187 51 187 76 0 22 121 200 208 306 41 50 116 132 167
182 129 128 310 244 380 244 33 0 47 23 52 82 16 208 321 699 766 1235 164
198 552 587 718 720 384 309 800 549 1579 913 246 115 564 219 779 255 130 22
164 19 246 -21z m-5329 -11 c-1 -7 -6 -16 -10 -20 -4 -4 -6 -1 -4 7 2 9 -4 14
-14 14 -10 -1 -15 2 -13 6 8 13 43 7 41 -7z m-59 -17 c0 -8 -6 -12 -14 -9 -7
3 -13 0 -13 -7 0 -6 -5 -8 -11 -4 -9 5 8 21 37 34 0 0 1 -6 1 -14z m-33 -66
c-6 -5 -24 21 -24 34 0 6 6 1 14 -10 8 -10 12 -21 10 -24z m-30 3 c3 -7 2 -13
-2 -13 -5 0 -16 6 -26 13 -16 12 -16 13 3 13 11 0 23 -6 25 -13z m-708 -438
c-11 -8 -14 -15 -7 -15 7 0 9 -5 5 -12 -6 -9 -9 -9 -11 -1 -3 7 -11 9 -19 6
-13 -5 -13 -7 -2 -15 10 -7 9 -8 -4 -6 -9 2 -17 -1 -16 -7 0 -5 4 -9 9 -7 12
3 12 -5 0 -12 -5 -3 -14 1 -21 9 -9 11 -4 19 31 44 42 31 72 44 35 16z m-6
-60 c-7 -9 -15 -13 -19 -10 -3 3 1 10 9 15 21 14 24 12 10 -5z m-70 -16 c0 -4
-5 -11 -11 -15 -6 -3 -8 -15 -6 -26 4 -15 2 -17 -8 -8 -7 6 -21 7 -31 4 -16
-6 -15 -4 4 13 12 11 22 25 22 30 0 5 7 10 15 10 8 0 15 -4 15 -8z m-55 -69
c-3 -5 -11 -10 -16 -10 -6 0 -7 5 -4 10 3 6 11 10 16 10 6 0 7 -4 4 -10z m-71
-36 c9 -24 -3 -35 -24 -22 -14 9 -16 16 -8 25 14 17 25 16 32 -3z m-30 -45
c-2 -4 -13 -7 -24 -6 -10 1 -17 4 -14 8 2 4 13 7 24 6 10 -1 17 -4 14 -8z
m7056 -18 c8 -15 8 -21 1 -17 -6 4 -11 3 -11 -3 0 -5 7 -14 16 -19 8 -5 16
-15 18 -23 1 -8 10 -29 19 -46 10 -18 13 -33 7 -33 -5 0 -10 -4 -10 -10 0 -5
7 -10 15 -10 8 0 15 -5 15 -10 0 -7 -6 -7 -20 0 -11 6 -20 15 -20 21 0 6 -4 7
-10 4 -5 -3 -10 -1 -10 5 0 7 7 9 16 6 24 -9 7 32 -25 61 -21 18 -22 22 -6 16
18 -6 19 -5 6 11 -8 9 -21 14 -29 11 -11 -4 -11 0 3 21 17 26 17 27 0 20 -15
-5 -16 -4 -5 9 7 9 14 14 15 13 1 -2 8 -14 15 -27z m-7119 -4 c-10 -9 -11 -8
-5 6 3 10 9 15 12 12 3 -3 0 -11 -7 -18z m8035 -32 c-6 -32 -10 -35 -41 -35
-19 0 -35 -3 -35 -7 1 -19 18 -33 33 -28 13 5 16 -2 19 -37 2 -35 6 -42 21
-40 16 3 18 -2 14 -32 -3 -19 0 -55 5 -80 8 -38 14 -46 39 -51 29 -6 54 -36
42 -49 -8 -8 6 -8 46 0 17 4 28 10 26 14 -3 5 11 14 30 20 19 6 35 17 35 23 0
18 26 -24 39 -63 12 -37 46 -67 56 -50 3 6 11 10 17 10 18 0 -12 -29 -116
-109 -170 -131 -619 -441 -639 -441 -3 0 -8 13 -12 29 -3 17 -19 43 -35 58
-22 22 -32 46 -45 113 -9 47 -33 141 -52 210 -19 69 -36 132 -39 140 -2 10 34
39 113 90 64 41 121 80 127 86 6 5 47 37 91 69 44 33 82 62 85 65 26 29 131
101 139 95 7 -4 8 0 4 11 -4 12 -3 15 5 10 7 -4 15 0 18 9 11 27 17 8 10 -30z
m-8032 -4 c3 -5 -2 -15 -12 -22 -15 -12 -16 -12 -5 2 7 9 10 19 6 22 -3 4 -4
7 0 7 3 0 8 -4 11 -9z m7063 -6 c-4 -8 -2 -17 3 -20 4 -3 11 1 13 7 3 7 6 -5
6 -27 l0 -40 -19 39 c-11 21 -17 43 -14 47 9 15 17 10 11 -6z m-7127 -16 c0
-5 5 -7 10 -4 6 3 10 4 10 1 0 -11 -60 -34 -66 -25 -3 5 0 8 7 7 7 -2 14 3 15
10 3 20 4 22 14 22 6 0 10 -5 10 -11z m7000 -37 c0 -15 -2 -15 -10 -2 -13 20
-13 33 0 25 6 -3 10 -14 10 -23z m-7017 -19 c4 9 6 9 6 0 1 -6 -4 -15 -10 -18
-15 -10 -59 -13 -54 -4 3 4 -1 10 -7 13 -7 3 -2 3 12 -1 23 -5 24 -5 10 13
-15 18 -14 18 12 2 20 -13 28 -14 31 -5z m7098 -76 c-8 -8 -11 -2 -11 19 0 40
14 54 18 19 2 -15 -1 -32 -7 -38z m66 17 c-2 -2 -12 -2 -21 2 -15 6 -15 7 1
20 15 11 19 10 21 -2 2 -9 2 -18 -1 -20z m-7239 -19 c-3 -3 -9 2 -12 12 -6 14
-5 15 5 6 7 -7 10 -15 7 -18z m-9 -17 c12 -20 12 -20 -18 1 -36 26 -38 31 -13
24 10 -2 24 -14 31 -25z m7258 -5 c-9 -9 -19 -14 -23 -11 -10 10 6 28 24 28
15 0 15 -1 -1 -17z m90 -5 c-3 -8 -6 -5 -6 6 -1 11 2 17 5 13 3 -3 4 -12 1
-19z m-7371 -1 c4 -4 0 -7 -9 -7 -9 0 -18 4 -21 9 -7 10 20 9 30 -2z m-59 -29
c2 -17 0 -19 -7 -8 -5 8 -6 18 -4 22 8 12 10 10 11 -14z m1893 -4 c0 -8 -7
-14 -15 -14 -17 0 -18 2 -9 24 7 18 24 12 24 -10z m5397 -6 c-3 -8 -6 -5 -6 6
-1 11 2 17 5 13 3 -3 4 -12 1 -19z m-7320 -16 c-9 -2 -14 -8 -11 -14 4 -7 2
-8 -4 -4 -17 11 -3 36 16 28 16 -6 15 -7 -1 -10z m-40 -27 c0 -8 -4 -12 -9 -9
-5 3 -6 10 -3 15 9 13 12 11 12 -6z m8823 -46 c0 -18 -27 -45 -36 -36 -3 3 -2
26 2 53 6 45 7 46 20 23 7 -13 13 -31 14 -40z m-8832 10 c3 -12 2 -12 -6 0 -6
8 -15 10 -22 6 -9 -5 -11 -4 -6 4 10 15 28 10 34 -10z m-83 -69 c-3 -5 -12
-10 -18 -10 -7 0 -6 4 3 10 19 12 23 12 15 0z m7636 -13 c-10 -9 -11 -8 -5 6
3 10 9 15 12 12 3 -3 0 -11 -7 -18z m-7631 -39 c0 -4 -4 -8 -9 -8 -6 0 -12 4
-15 8 -3 5 1 9 9 9 8 0 15 -4 15 -9z m7457 -60 c-3 -7 -5 -2 -5 12 0 14 2 19
5 13 2 -7 2 -19 0 -25z m30 0 c-3 -7 -5 -2 -5 12 0 14 2 19 5 13 2 -7 2 -19 0
-25z m253 -108 c0 -5 -2 -10 -4 -10 -3 0 -8 5 -11 10 -3 6 -1 10 4 10 6 0 11
-4 11 -10z m-20 -50 c0 -5 -2 -10 -4 -10 -3 0 -8 5 -11 10 -3 6 -1 10 4 10 6
0 11 -4 11 -10z m-6590 -20 c0 -5 -5 -10 -11 -10 -5 0 -7 5 -4 10 3 6 8 10 11
10 2 0 4 -4 4 -10z m95 0 c3 -5 1 -10 -4 -10 -6 0 -11 5 -11 10 0 6 2 10 4 10
3 0 8 -4 11 -10z m-156 -85 c-6 -6 -13 -5 -19 5 -6 9 -5 17 3 22 15 9 29 -14
16 -27z m6443 3 c-7 -7 -12 -8 -12 -2 0 14 12 26 19 19 2 -3 -1 -11 -7 -17z
m269 -68 c8 11 9 4 4 -25 -3 -25 -2 -35 3 -27 6 9 11 0 15 -30 3 -24 1 -47 -4
-53 -6 -6 -9 -2 -7 12 2 12 -1 22 -6 22 -5 -1 -12 5 -17 12 -6 10 -10 10 -23
0 -22 -18 -36 -5 -36 35 0 30 3 34 25 34 22 0 25 3 20 28 -5 27 -5 27 5 2 9
-20 13 -22 21 -10z m-6831 -10 c0 -5 -5 -10 -11 -10 -5 0 -7 5 -4 10 3 6 8 10
11 10 2 0 4 -4 4 -10z m6585 -41 c-5 -13 -2 -17 8 -14 8 4 18 -4 25 -20 9 -19
9 -24 -1 -22 -8 1 -13 -14 -15 -40 -2 -26 1 -43 7 -43 6 0 11 -21 11 -49 0
-28 5 -53 10 -56 6 -4 8 -16 4 -27 -5 -17 -3 -20 10 -15 9 4 16 2 16 -3 0 -6
-5 -10 -12 -10 -9 0 -9 -3 0 -12 8 -8 15 -8 21 -2 12 12 18 115 8 132 -5 7 -5
21 -2 33 7 20 7 20 21 2 12 -15 15 -16 23 -3 7 9 6 17 -1 21 -11 7 -5 44 12
69 9 13 13 11 29 -10 18 -23 21 -23 38 -9 10 9 25 20 33 24 12 7 13 6 4 -6 -6
-8 -11 -24 -12 -37 -1 -20 2 -21 14 -11 8 6 17 10 20 7 20 -21 24 -149 4 -172
-8 -11 -9 -16 -1 -16 6 0 11 5 11 10 0 6 5 10 11 10 7 0 9 -63 5 -212 -6 -255
-14 -351 -30 -360 -8 -6 -7 -8 2 -8 7 0 11 -4 8 -9 -3 -5 -8 -26 -11 -47 -14
-103 -14 -104 -46 -224 -6 -25 -18 -50 -25 -56 -8 -6 -11 -14 -7 -17 3 -4 -2
-18 -11 -32 -9 -14 -14 -25 -10 -25 3 0 -8 -25 -25 -55 -18 -31 -29 -60 -26
-65 3 -6 -1 -7 -10 -4 -11 4 -14 2 -9 -9 3 -8 -2 -27 -11 -41 -10 -14 -15 -26
-11 -26 3 0 -4 -18 -15 -40 -12 -22 -25 -37 -31 -34 -5 3 -8 0 -7 -7 4 -18
-23 -59 -38 -59 -6 0 -15 -5 -19 -12 -4 -7 -3 -8 4 -4 21 12 13 -10 -12 -37
-13 -14 -26 -32 -29 -39 -4 -8 -6 -7 -6 5 -1 16 -4 15 -35 -5 -19 -13 -32 -26
-30 -30 5 -7 -8 -12 -26 -10 -3 0 -7 -8 -7 -19 -1 -10 2 -19 8 -19 5 0 9 8 9
17 0 12 3 14 10 7 13 -13 2 -46 -14 -41 -6 2 -16 -3 -22 -11 -10 -14 -13 -12
-19 8 -5 15 -4 25 4 28 6 2 11 15 11 28 0 15 6 24 16 24 8 0 12 5 9 10 -3 6
-1 10 5 10 19 0 70 40 70 55 0 21 -50 31 -61 14 -8 -12 -11 -12 -19 1 -8 12
-10 11 -10 -7 0 -15 6 -23 18 -23 14 0 15 -2 2 -10 -8 -5 -25 -10 -37 -10 -26
0 -26 0 -14 -34 7 -17 7 -26 -1 -28 -15 -5 -16 -51 -1 -66 11 -11 10 -18 -5
-37 -9 -14 -25 -27 -35 -30 -17 -6 -17 -7 1 -23 10 -9 13 -14 7 -10 -6 4 -17
3 -25 -2 -10 -7 -11 -10 -2 -10 6 0 12 -4 12 -10 0 -5 -7 -6 -17 -3 -11 5 -14
3 -8 -6 5 -10 2 -11 -14 -6 -26 8 -27 -3 -3 -22 16 -14 16 -14 0 -9 -10 3 -20
0 -24 -6 -4 -6 -3 -8 4 -4 6 3 13 2 17 -4 6 -10 -6 -14 -39 -10 -18 2 -18 1
-3 -15 21 -21 22 -17 -10 -46 -20 -18 -24 -19 -13 -4 14 18 14 19 -2 7 -9 -8
-14 -20 -11 -28 3 -8 -1 -14 -11 -14 -9 0 -16 -5 -16 -11 0 -18 -176 -186
-259 -247 -143 -107 -213 -151 -230 -145 -9 4 -13 2 -9 -2 10 -10 -4 -20 -119
-83 -153 -85 -445 -208 -465 -196 -4 3 -8 1 -8 -4 0 -5 -9 -12 -20 -15 -11 -3
-18 -1 -14 4 3 5 0 9 -6 9 -6 0 -13 -6 -16 -14 -3 -8 -15 -11 -29 -8 -14 2
-22 8 -19 13 3 5 1 9 -4 9 -15 0 -23 -28 -9 -33 6 -2 3 -6 -7 -10 -9 -4 -15
-3 -12 2 3 5 -1 11 -8 14 -8 3 -16 2 -18 -4 -4 -13 -91 13 -94 29 -1 7 0 8 2
3 10 -19 71 -23 106 -8 18 9 46 14 62 12 15 -2 35 -1 44 2 13 5 12 8 -3 19
-12 9 -23 10 -36 4 -19 -11 -49 -4 -49 11 0 5 -4 9 -10 9 -5 0 -10 -11 -10
-25 0 -14 -5 -25 -11 -25 -5 0 -8 4 -5 9 9 13 -19 21 -75 21 -27 0 -49 5 -49
10 0 6 27 10 65 9 36 -1 71 3 78 9 16 13 59 12 70 -3 6 -7 10 -6 14 3 7 18 31
15 37 -5 3 -11 4 -7 3 7 -1 14 -6 28 -12 32 -5 4 2 8 17 8 15 0 29 4 32 8 3 5
-4 8 -16 8 -12 -1 -23 5 -25 12 -3 8 7 12 32 12 29 0 36 3 31 15 -3 8 -1 15 4
15 6 0 10 18 10 39 0 22 5 43 10 46 16 10 2 25 -23 25 -20 0 -20 0 -2 -14 19
-13 18 -14 -8 -13 -26 2 -31 8 -28 35 1 6 -5 12 -14 12 -8 0 -15 5 -15 10 0
16 36 12 50 -5 14 -17 34 -15 36 3 1 7 2 16 3 20 0 5 54 26 119 47 209 69 469
219 642 369 181 158 360 401 448 606 54 128 112 303 107 321 -11 33 -34 29
-84 -14 -26 -23 -63 -55 -82 -71 -19 -15 -64 -56 -100 -90 -36 -33 -93 -87
-128 -119 -35 -33 -66 -55 -73 -51 -6 4 -8 3 -5 -3 7 -11 -99 -110 -114 -106
-5 2 -9 -2 -9 -9 0 -6 -21 -31 -47 -54 -34 -30 -54 -42 -68 -38 -14 4 -16 3
-7 -4 13 -9 3 -20 -95 -100 -18 -15 -45 -37 -59 -49 -27 -23 -50 -31 -39 -14
3 5 1 12 -4 16 -6 3 -8 -6 -5 -21 5 -26 -21 -58 -38 -48 -5 3 -8 -2 -8 -10 0
-9 -6 -16 -12 -16 -7 0 -26 -16 -41 -35 -16 -20 -33 -33 -38 -29 -5 3 -8 2 -7
-3 2 -4 -1 -10 -7 -12 -5 -3 -18 -15 -28 -28 -10 -13 -26 -23 -34 -23 -9 0
-14 -3 -10 -6 3 -4 -13 -22 -36 -40 -23 -19 -52 -44 -64 -56 -17 -17 -23 -19
-24 -8 0 8 -4 5 -9 -7 -5 -13 -15 -21 -22 -19 -7 1 -9 1 -5 -2 5 -2 1 -13 -9
-23 -9 -10 -21 -16 -25 -13 -5 3 -9 0 -9 -6 0 -6 -4 -9 -9 -6 -5 3 -12 -1 -15
-10 -4 -9 -9 -15 -12 -12 -3 3 -18 -6 -34 -21 -55 -49 -70 -60 -127 -98 -32
-21 -59 -41 -61 -45 -2 -5 -10 -8 -18 -8 -8 0 -14 -7 -14 -16 0 -8 -4 -12 -10
-9 -5 3 -10 1 -10 -4 0 -6 5 -11 10 -11 6 0 10 -7 10 -15 0 -9 6 -18 14 -21 8
-3 12 -12 9 -20 -3 -8 -10 -11 -17 -8 -6 3 -2 -2 8 -10 19 -15 19 -16 -11 -16
-18 0 -34 4 -38 9 -8 13 24 42 38 35 9 -5 9 -3 0 6 -7 7 -35 15 -62 17 -49 4
-57 0 -52 -29 1 -12 -33 4 -42 19 -5 7 -13 10 -19 7 -6 -4 -15 0 -20 7 -8 11
-9 10 -4 -3 3 -10 0 -18 -6 -18 -6 0 -5 -6 3 -17 13 -17 13 -17 -7 0 -11 9
-24 14 -29 10 -4 -5 -5 -2 -1 5 4 7 12 10 17 7 5 -4 9 0 9 8 0 19 36 50 50 42
6 -3 9 -1 8 7 -2 8 6 12 22 11 21 -2 22 -1 8 7 -15 9 0 26 100 117 64 58 184
163 266 232 82 69 206 175 275 235 167 144 434 368 656 550 99 81 248 207 332
279 176 152 168 139 208 375 31 184 33 235 12 257 -20 19 -24 17 -99 -48 -32
-27 -62 -46 -68 -42 -7 4 -14 -1 -17 -13 -3 -14 -10 -19 -21 -15 -10 4 -13 2
-8 -5 4 -7 1 -12 -8 -12 -9 0 -16 -8 -17 -17 0 -11 -3 -13 -6 -5 -2 6 -9 12
-14 12 -4 0 -6 -7 -3 -15 5 -11 2 -14 -12 -9 -11 4 -16 4 -12 -1 13 -13 -11
-44 -47 -61 -20 -9 -41 -26 -47 -38 -15 -29 -40 -46 -57 -41 -8 3 -11 0 -8 -9
7 -18 -28 -50 -44 -40 -7 4 -10 3 -6 -3 10 -15 -17 -35 -37 -27 -19 7 -22 -12
-3 -20 6 -3 2 -3 -9 -1 -16 4 -22 1 -20 -11 0 -11 -8 -20 -22 -23 -12 -3 -31
-21 -42 -38 -11 -18 -26 -33 -33 -33 -7 0 -19 -9 -27 -20 -8 -11 -24 -20 -35
-20 -17 0 -18 -2 -5 -11 12 -8 9 -10 -11 -6 -21 3 -25 0 -22 -14 5 -16 -31
-46 -49 -41 -5 1 -8 -4 -8 -11 0 -22 -81 -82 -95 -70 -4 5 -5 3 -2 -3 3 -6 -5
-21 -18 -32 -14 -12 -25 -20 -25 -19 0 2 -21 -16 -47 -40 -26 -23 -51 -43 -54
-43 -4 0 -40 -31 -80 -70 -41 -38 -82 -70 -92 -70 -10 0 -16 -3 -14 -7 2 -5
-7 -18 -20 -30 -13 -12 -23 -21 -23 -19 0 2 -15 -10 -33 -27 -75 -70 -124
-115 -196 -175 -41 -35 -80 -69 -86 -75 -19 -19 -62 -55 -200 -172 -71 -60
-135 -114 -141 -120 -62 -56 -119 -99 -128 -97 -6 2 -8 1 -4 -3 8 -8 -34 -54
-44 -49 -3 3 -16 -10 -28 -27 -14 -19 -28 -28 -37 -25 -11 5 -13 2 -9 -10 5
-14 4 -15 -9 -4 -13 11 -14 10 -9 -6 4 -10 4 -16 -1 -12 -10 9 -45 -9 -45 -24
0 -7 5 -6 15 2 24 20 18 5 -7 -16 -12 -10 -18 -14 -15 -7 17 28 -12 18 -53
-19 -25 -22 -38 -37 -30 -32 12 6 13 5 3 -8 -7 -8 -11 -17 -8 -20 3 -3 -1 -11
-9 -17 -12 -10 -14 -8 -12 13 2 14 -1 23 -5 20 -5 -3 -9 -13 -9 -22 0 -9 -5
-24 -11 -32 -8 -12 -9 -9 -4 10 4 18 1 15 -12 -10 -10 -19 -33 -42 -51 -52
-40 -19 -55 -34 -27 -25 20 7 20 7 0 -8 -17 -14 -20 -13 -31 6 -6 13 -14 17
-18 11 -3 -6 0 -12 6 -15 7 -2 -7 -3 -32 -3 -30 1 -49 7 -58 18 -16 22 -28 9
202 214 293 260 422 372 586 511 85 72 202 172 260 222 58 51 281 238 495 417
790 660 862 721 972 823 l112 105 8 80 c4 45 7 87 6 93 0 7 3 10 9 7 5 -3 6
-14 3 -25z m-6645 -39 c0 -34 -5 -37 -27 -15 -17 18 -11 45 12 45 10 0 15 -10
15 -30z m8376 -38 c-3 -3 -6 3 -7 14 0 18 -1 18 -8 -1 -8 -19 -8 -19 -20 4 -9
17 -10 21 -1 16 7 -4 14 2 18 16 5 22 6 22 14 -10 5 -18 7 -36 4 -39z m-146
-2 c0 -5 -2 -10 -4 -10 -3 0 -8 5 -11 10 -3 6 -1 10 4 10 6 0 11 -4 11 -10z
m-8344 -55 c-8 -8 -22 -15 -30 -15 -9 0 -16 -5 -16 -12 0 -6 -2 -9 -5 -6 -11
10 8 38 25 38 10 0 21 10 25 23 6 19 8 19 12 5 2 -10 -2 -25 -11 -33z m8244
-19 c0 -26 5 -47 13 -50 6 -3 2 -3 -10 0 -17 4 -21 2 -17 -9 3 -8 1 -18 -5
-22 -6 -3 -11 -31 -11 -61 0 -37 -4 -53 -11 -49 -7 5 -9 -4 -5 -27 8 -50 17
-71 39 -90 26 -23 31 -23 24 2 -6 24 6 26 27 5 8 -8 28 -15 43 -15 39 0 69
-30 77 -77 24 -141 71 -303 88 -303 5 0 8 -8 8 -17 0 -15 2 -16 9 -3 6 8 8 17
5 21 -2 4 0 10 6 14 6 3 13 -1 16 -10 9 -23 71 -17 78 8 3 13 10 18 21 13 11
-4 19 2 24 17 13 34 25 -157 17 -272 -9 -124 -22 -200 -48 -281 -18 -54 -32
-75 -83 -125 -48 -46 -74 -83 -113 -160 -102 -205 -297 -683 -361 -885 -68
-217 -150 -484 -156 -510 -5 -20 -13 -25 -43 -28 -58 -4 -525 -111 -650 -148
-148 -45 -225 -80 -341 -158 -169 -113 -308 -273 -402 -466 -22 -44 -39 -83
-39 -88 0 -6 -55 -7 -132 -4 -107 4 -140 1 -170 -11 -34 -14 -38 -20 -38 -50
0 -46 64 -131 159 -212 38 -33 70 -68 70 -77 1 -10 -9 -57 -21 -105 -29 -118
-31 -311 -5 -398 45 -147 116 -255 235 -359 96 -82 183 -138 383 -241 172 -89
512 -280 553 -310 18 -14 17 -17 -22 -68 -86 -111 -427 -479 -608 -657 -357
-350 -499 -469 -911 -758 -391 -273 -946 -587 -1478 -834 -194 -90 -550 -239
-590 -247 -22 -5 -95 -29 -163 -55 -137 -51 -468 -148 -684 -201 -355 -85
-580 -136 -668 -149 -329 -52 -669 -69 -888 -45 -224 24 -562 108 -886 219
-143 49 -193 69 -171 70 6 0 51 7 102 15 114 18 145 32 141 59 -3 18 -13 22
-83 29 -133 13 -165 18 -165 25 0 4 20 29 45 55 29 31 45 57 45 74 0 20 -4 24
-18 18 -43 -16 -72 -18 -72 -2 0 8 7 20 16 28 8 7 22 25 29 39 12 22 12 31 1
45 -12 16 -14 16 -45 0 -18 -9 -35 -15 -37 -12 -3 2 40 95 95 205 145 291 240
524 280 684 9 37 20 70 23 74 4 3 4 19 1 35 -3 18 -1 29 6 29 6 0 10 10 10 23
-1 16 -2 18 -6 4 -5 -18 -33 -24 -33 -6 0 5 4 8 9 5 5 -3 14 14 21 39 14 51
26 60 175 124 148 64 322 158 438 236 50 34 52 34 55 14 2 -11 -1 -66 -7 -120
-15 -139 -14 -356 4 -544 18 -190 22 -212 40 -219 30 -11 34 18 19 139 -24
202 -28 459 -10 632 9 83 20 161 24 172 4 11 43 50 87 87 171 145 373 373 465
524 18 30 61 114 94 185 115 244 156 317 174 309 139 -58 310 -78 438 -51 300
64 570 306 671 602 51 151 68 375 37 521 -18 88 -75 257 -111 327 -13 27 -23
51 -21 53 2 2 47 -19 100 -46 139 -72 287 -119 408 -130 114 -9 268 1 368 26
130 32 286 113 381 199 48 44 45 44 194 -38 69 -37 125 -62 152 -65 40 -4 44
-2 59 26 21 41 21 178 0 279 -8 42 -31 120 -50 173 -31 87 -34 102 -25 141 13
57 14 212 1 279 -11 59 -11 60 19 63 11 1 21 4 21 8 0 4 10 7 23 7 12 0 67 12
122 26 239 60 472 156 720 294 39 22 97 54 130 72 33 18 79 43 103 56 23 13
49 24 57 24 8 0 15 3 15 8 0 4 15 14 33 22 17 7 37 17 42 22 48 38 115 88 119
88 27 0 285 262 368 373 l81 108 116 -6 c64 -3 167 -13 230 -21 63 -8 120 -13
127 -10 8 3 14 17 14 30 0 19 -6 27 -22 30 -61 13 -193 27 -300 33 -65 3 -118
10 -118 16 0 5 15 37 34 70 202 370 273 545 318 786 l23 121 72 0 c65 0 72 2
79 22 9 31 -19 48 -81 48 -29 0 -54 2 -56 5 -3 2 0 57 7 122 6 65 10 121 8
124 -7 13 22 27 106 54 166 53 303 112 575 246 171 84 284 144 300 160 18 18
25 8 25 -35z m-8140 14 c0 -5 -4 -10 -9 -10 -6 0 -13 5 -16 10 -3 6 1 10 9 10
9 0 16 -4 16 -10z m8407 -12 c-3 -8 -6 -5 -6 6 -1 11 2 17 5 13 3 -3 4 -12 1
-19z m-1690 -10 c-3 -8 -6 -5 -6 6 -1 11 2 17 5 13 3 -3 4 -12 1 -19z m1705
-70 c-8 -8 -9 -4 -5 13 4 13 8 18 11 10 2 -7 -1 -18 -6 -23z m-252 -8 c0 -5
-7 -10 -15 -10 -8 0 -15 5 -15 10 0 6 7 10 15 10 8 0 15 -4 15 -10z m282 -57
c2 -28 4 -36 17 -67 6 -16 9 -31 7 -34 -3 -3 -10 7 -15 21 -5 14 -15 28 -21
32 -9 6 -9 9 0 15 9 6 9 13 1 29 -8 14 -8 21 -1 21 5 0 11 -8 12 -17z m38
-138 c0 -8 -5 -15 -12 -15 -6 0 -8 3 -5 7 4 3 -1 15 -10 26 -17 19 -17 20 5 8
12 -6 22 -18 22 -26z m9 -90 c-7 -7 -8 -4 -3 8 4 12 2 16 -7 14 -8 -2 -11 -2
-6 0 4 3 7 14 8 26 1 17 3 16 10 -8 5 -19 5 -33 -2 -40z m-9094 -195 c3 -5 1
-10 -4 -10 -6 0 -11 5 -11 10 0 6 2 10 4 10 3 0 8 -4 11 -10z m-235 -359 c0
-5 -11 -11 -24 -13 -17 -4 -23 -1 -19 9 6 14 43 18 43 4z m7400 -636 c0 -8 -7
-15 -15 -15 -9 0 -12 -6 -9 -15 5 -11 2 -13 -10 -9 -19 7 -19 9 -4 34 15 24
38 26 38 5z m-100 -125 c-11 -9 -20 -22 -20 -29 0 -6 -10 -10 -22 -10 -17 1
-19 2 -5 6 9 2 17 9 17 15 0 17 31 48 42 42 5 -3 0 -14 -12 -24z m-3365 -319
c-3 -5 -1 -12 5 -16 5 -3 10 -1 10 5 0 6 5 8 10 5 6 -3 10 -14 10 -23 0 -15
-2 -15 -10 -2 -8 12 -10 12 -11 -5 0 -15 -2 -16 -6 -5 -3 8 -13 19 -21 24 -12
7 -12 10 -1 17 18 11 22 11 14 0z m-169 -20 c-4 -5 -3 -11 1 -14 5 -2 2 -2 -5
0 -8 1 -20 3 -28 3 -8 0 -14 5 -14 10 0 6 12 10 26 10 14 0 23 -4 20 -9z m238
-7 c15 -6 23 -44 10 -44 -8 0 -33 32 -34 43 0 9 4 9 24 1z m-189 -14 c3 -5 1
-10 -4 -10 -6 0 -11 5 -11 10 0 6 2 10 4 10 3 0 8 -4 11 -10z m90 0 c16 -7 14
-8 -12 -7 -17 1 -29 5 -26 10 5 9 12 8 38 -3z m57 -40 c-6 -15 -11 -19 -16
-12 -4 7 -1 18 6 26 17 19 20 14 10 -14z m38 -40 c0 -14 27 -12 33 3 3 6 6 2
6 -10 1 -26 -15 -29 -41 -9 -20 15 -23 26 -8 26 6 0 10 -4 10 -10z m-753 -54
c48 -18 120 -43 158 -56 118 -38 176 -66 265 -125 47 -31 110 -70 141 -85 30
-16 61 -35 68 -44 7 -9 17 -13 22 -10 5 3 8 0 7 -8 -2 -7 23 -26 59 -43 34
-16 62 -36 62 -42 1 -7 6 -13 12 -13 5 0 7 6 4 13 -4 6 0 5 7 -4 8 -9 36 -27
63 -39 28 -12 73 -32 100 -45 49 -22 250 -91 390 -134 146 -45 547 -117 705
-126 72 -5 132 -2 193 8 86 14 88 14 99 -7 7 -11 14 -71 16 -131 6 -165 -28
-281 -127 -431 -129 -194 -315 -336 -526 -400 -84 -26 -103 -28 -275 -28 -167
-1 -192 1 -258 22 -115 36 -227 87 -329 148 -141 84 -151 69 -69 -100 125
-255 158 -436 122 -676 -28 -185 -96 -325 -223 -460 -224 -238 -507 -330 -768
-250 -111 35 -107 30 -84 98 30 87 49 165 54 224 2 29 8 76 13 104 24 143 7
605 -28 733 -5 20 -11 52 -14 71 -14 112 -95 408 -185 677 -33 98 -69 219 -80
268 -22 93 -36 148 -51 200 -14 47 -40 153 -55 227 -13 65 -11 108 6 108 5 0
9 5 9 10 0 31 149 205 235 276 47 38 152 104 167 104 3 0 46 -15 95 -34z
m1001 -41 c-3 -3 -9 2 -12 12 -6 14 -5 15 5 6 7 -7 10 -15 7 -18z m57 -13 c-3
-3 -11 0 -18 7 -9 10 -8 11 6 5 10 -3 15 -9 12 -12z m49 -58 c3 -8 2 -12 -4
-9 -6 3 -10 10 -10 16 0 14 7 11 14 -7z m475 -22 c0 -11 -2 -13 -6 -4 -4 10
-8 9 -17 -4 -12 -16 -13 -16 -19 0 -4 9 -3 15 2 12 5 -3 12 1 15 10 7 19 26 9
25 -14z m-250 4 c-2 -2 -17 -6 -34 -10 -22 -5 -26 -4 -15 4 14 9 59 15 49 6z
m1371 -16 c0 -5 -10 -10 -22 -10 -21 0 -21 0 -2 -15 10 -8 27 -15 37 -15 10 0
16 -4 13 -9 -4 -5 2 -8 11 -6 10 1 21 0 26 -2 11 -6 -19 -33 -37 -33 -9 0 -16
-4 -16 -10 0 -5 -9 -10 -20 -10 -11 0 -20 5 -20 10 0 6 -9 10 -20 10 -11 0
-20 5 -20 10 0 6 -11 10 -24 10 -14 0 -28 -4 -31 -10 -3 -5 -1 -10 4 -10 6 0
11 -4 11 -10 0 -5 -9 -10 -20 -10 -15 0 -20 7 -20 25 0 14 -5 25 -11 25 -5 0
-7 5 -4 11 4 6 14 8 22 4 12 -4 13 -3 5 8 -7 8 -9 17 -5 20 10 11 41 8 48 -3
4 -7 -3 -9 -22 -5 -17 4 -7 -4 26 -20 31 -15 65 -24 80 -22 21 3 20 4 -9 6
-28 2 -31 4 -16 10 19 7 19 8 -2 13 -14 4 -20 2 -16 -4 4 -6 1 -9 -6 -6 -16 5
-33 48 -20 48 6 0 10 -4 10 -10 0 -5 5 -10 11 -10 5 0 8 4 4 9 -4 8 4 12 48
20 4 0 7 -3 7 -9z m-1346 -15 c-4 -8 -8 -15 -10 -15 -2 0 -4 7 -4 15 0 8 4 15
10 15 5 0 7 -7 4 -15z m228 -30 c-3 -5 -7 -4 -9 2 -3 7 -12 9 -21 6 -15 -6
-15 -4 -4 10 11 13 17 14 27 4 7 -7 10 -16 7 -22z m735 20 c0 -17 -13 -20 -21
-6 -4 5 0 12 6 14 7 3 13 6 14 6 0 1 1 -6 1 -14z m95 -10 c3 -14 -1 -33 -8
-42 -8 -11 -13 -13 -14 -5 0 8 -21 12 -70 12 -49 0 -70 -4 -70 -12 0 -7 -5 -5
-11 5 -8 14 -8 22 0 30 8 8 11 8 11 0 0 -6 26 -10 69 -9 61 1 68 3 60 18 -6
11 -5 18 4 21 22 9 25 7 29 -18z m-912 1 c-7 -7 -13 -7 -20 0 -6 6 -3 10 10
10 13 0 16 -4 10 -10z m1040 10 c0 -2 -7 -9 -15 -16 -13 -11 -14 -10 -9 4 5
14 24 23 24 12z m177 -2 c-3 -3 -12 -4 -19 -1 -8 3 -5 6 6 6 11 1 17 -2 13 -5z
m-989 -35 c9 -1 20 -1 24 0 3 0 5 -7 3 -17 -2 -9 -4 -20 -4 -24 -1 -5 -16 -7
-33 -7 -28 2 -29 2 -8 6 30 6 51 23 28 23 -9 0 -26 9 -39 21 -13 11 -18 18
-11 14 6 -3 13 0 13 7 1 7 3 5 6 -4 2 -10 12 -19 21 -19z m497 2 c0 -16 -2
-28 -4 -26 -2 3 -11 0 -21 -5 -12 -6 -17 -5 -17 5 0 8 4 12 9 9 4 -3 12 6 18
20 12 33 15 33 15 -3z m-1340 -10 c3 -5 1 -12 -5 -16 -5 -3 -10 1 -10 9 0 18
6 21 15 7z m500 -1 c3 -5 -3 -10 -14 -10 -12 0 -21 5 -21 10 0 6 6 10 14 10 8
0 18 -4 21 -10z m560 -31 c-7 -10 -35 -1 -35 11 0 5 9 6 20 3 11 -3 17 -9 15
-14z m525 0 c0 -5 -6 -9 -13 -9 -8 0 -14 6 -14 14 0 8 6 12 14 9 7 -3 13 -9
13 -14z m-435 2 c18 -7 17 -8 -6 -13 -15 -2 -35 1 -45 9 -17 12 -16 13 7 12
13 0 33 -4 44 -8z m133 -3 c-6 -17 -58 -23 -58 -8 0 7 -7 10 -15 7 -8 -4 -17
-2 -20 3 -4 6 15 10 45 10 37 0 50 -4 48 -12z m36 -16 c2 -4 -5 -9 -17 -9 -17
-2 -19 0 -7 7 18 12 18 12 24 2z m-621 -9 c-7 -2 -19 -2 -25 0 -7 3 -2 5 12 5
14 0 19 -2 13 -5z m-719 -18 c-4 -10 0 -15 12 -16 15 0 14 -2 -5 -10 -13 -5
-26 -7 -29 -4 -3 3 0 5 7 5 7 0 9 5 6 10 -3 6 -3 15 0 20 9 15 15 12 9 -5z
m1846 5 c0 -5 -4 -10 -10 -10 -5 0 -10 5 -10 10 0 6 5 10 10 10 6 0 10 -4 10
-10z m-1805 -58 c-3 -3 -11 0 -18 7 -9 10 -8 11 6 5 10 -3 15 -9 12 -12z
m1485 -2 c0 -5 -9 -10 -21 -10 -11 0 -17 5 -14 10 3 6 13 10 21 10 8 0 14 -4
14 -10z m155 -10 c-3 -5 -18 -9 -33 -9 l-27 1 30 8 c17 4 31 8 33 9 2 0 0 -3
-3 -9z m42 -6 c-3 -3 -12 -4 -19 -1 -8 3 -5 6 6 6 11 1 17 -2 13 -5z m-177
-24 c0 -5 -4 -10 -10 -10 -5 0 -10 5 -10 10 0 6 5 10 10 10 6 0 10 -4 10 -10z
m10 -59 c0 -17 -18 -21 -24 -6 -3 9 0 15 9 15 8 0 15 -4 15 -9z m8 -82 c11 0
12 -2 4 -6 -15 -6 -42 14 -42 31 0 6 5 3 11 -6 5 -10 18 -18 27 -19z m99 15
c-3 -3 -12 -4 -19 -1 -8 3 -5 6 6 6 11 1 17 -2 13 -5z m-218 -14 c4 0 8 -7 8
-15 0 -15 0 -15 -47 24 -3 2 3 1 13 -2 10 -4 22 -7 26 -7z m-49 -10 c18 -12 2
-12 -25 0 -13 6 -15 9 -5 9 8 0 22 -4 30 -9z m-212 -47 c-10 -2 -28 -2 -40 0
-13 2 -5 4 17 4 22 1 32 -1 23 -4z m372 -735 c29 -98 40 -305 17 -313 -17 -7
-48 7 -180 79 l-87 48 20 26 c69 89 126 175 153 229 l31 62 12 -29 c7 -16 22
-62 34 -102z m1466 -341 c3 -3 -1 -31 -10 -61 -9 -31 -23 -81 -32 -111 l-16
-56 -59 55 c-76 71 -139 143 -139 161 0 7 8 16 18 19 21 6 231 0 238 -7z
m2980 -734 c4 -21 15 -60 25 -86 l19 -48 -24 13 c-12 7 -64 42 -114 78 l-92
65 73 6 c39 3 80 6 89 7 12 2 19 -8 24 -35z m584 -554 c0 -5 -4 -9 -10 -9 -5
0 -10 7 -10 16 0 8 5 12 10 9 6 -3 10 -10 10 -16z m-23 -925 c-3 -3 -12 -4
-19 -1 -8 3 -5 6 6 6 11 1 17 -2 13 -5z m213 -14 c8 -5 11 -10 5 -10 -5 0 -17
5 -25 10 -8 5 -10 10 -5 10 6 0 17 -5 25 -10z m-11226 -678 c6 -10 -41 -38
-49 -30 -3 3 -3 13 1 22 6 17 39 22 48 8z m1553 -139 c-6 -16 -14 -30 -17 -33
-18 -18 -60 -89 -60 -103 0 -9 -6 -17 -13 -17 -6 0 -34 -37 -62 -82 -67 -113
-167 -265 -205 -313 -31 -39 -238 -252 -402 -411 l-83 -82 -63 -3 c-34 -2 -62
-2 -62 1 0 3 16 30 35 60 20 30 34 62 33 70 -4 21 -52 24 -71 5 -15 -14 -19
-14 -40 0 -22 14 -25 14 -37 0 -13 -16 -62 -45 -75 -45 -4 0 6 17 22 38 36 46
113 174 113 187 0 15 -61 2 -82 -19 -39 -35 -56 -39 -50 -10 2 13 0 24 -6 24
-24 0 -90 -35 -125 -66 -46 -42 -62 -44 -42 -3 9 17 14 37 11 44 -4 12 10 59
39 127 6 14 2 16 -24 13 -27 -4 -30 -2 -19 10 29 32 38 45 38 53 0 4 14 35 30
67 17 32 30 64 30 71 0 16 -31 27 -43 15 -5 -5 -16 -7 -23 -4 -9 3 11 28 59
71 39 37 106 99 147 139 l75 71 190 11 c105 6 219 16 255 21 36 6 81 13 101
16 l36 5 -1 -93 c-1 -83 1 -93 18 -96 25 -5 36 14 36 63 0 22 3 64 6 93 6 44
10 52 28 52 12 0 71 14 131 31 61 17 126 34 145 39 19 4 36 8 37 9 2 0 -3 -11
-10 -26z m3703 -1759 c0 -8 -5 -12 -10 -9 -6 4 -8 11 -5 16 9 14 15 11 15 -7z
m-1005 -334 c3 -5 2 -10 -4 -10 -5 0 -13 5 -16 10 -3 6 -2 10 4 10 5 0 13 -4
16 -10z m-151 -21 c-3 -5 0 -9 6 -9 16 0 40 -64 39 -102 l-1 -33 -8 31 c-4 18
-19 53 -34 79 -30 55 -31 56 -11 49 8 -4 12 -10 9 -15z m-135 -56 c79 -59 95
-191 40 -335 -71 -182 -227 -378 -370 -462 -32 -19 -32 -19 -24 0 62 145 162
470 210 680 14 66 28 124 30 130 5 18 84 8 114 -13z m431 -35 c-17 -23 -44
-48 -59 -54 -20 -8 -38 -31 -60 -75 -17 -34 -31 -69 -31 -77 0 -9 -3 -13 -6
-10 -3 3 -1 23 5 45 6 21 12 64 13 95 l2 57 81 29 c44 16 81 30 83 31 1 0 -12
-18 -28 -41z m-169 -255 c-12 -20 -14 -14 -5 12 4 9 9 14 11 11 3 -2 0 -13 -6
-23z m-741 -637 c0 -8 -7 -16 -15 -20 -13 -4 -14 -2 -5 14 13 23 20 26 20 6z"/>
<path d="M9942 12538 c-74 -8 -191 -45 -312 -98 -308 -136 -773 -372 -937
-477 -29 -18 -54 -33 -57 -33 -13 0 -401 -265 -501 -342 -370 -286 -778 -714
-1036 -1088 -173 -250 -339 -595 -339 -704 0 -40 28 -76 58 -76 10 0 52 31 93
68 41 37 139 124 219 192 80 68 208 181 285 250 287 259 429 381 939 809 348
292 1317 1069 1684 1350 100 76 112 87 112 108 0 32 -106 53 -208 41z m-931
-519 c27 -10 169 -112 169 -122 0 -2 -54 -41 -120 -87 -67 -47 -164 -116 -217
-154 -155 -111 -282 -196 -290 -195 -5 1 -35 30 -68 66 l-60 65 55 50 c102 93
437 355 496 387 1 1 16 -4 35 -10z m-594 -571 c28 -31 34 -63 16 -87 -18 -27
-42 -26 -74 2 -36 31 -45 64 -23 88 23 25 56 24 81 -3z m-129 -80 c18 -18 15
-55 -6 -60 -21 -6 -39 11 -39 37 0 31 24 44 45 23z"/>
<path d="M10203 12346 c-524 -405 -1556 -1243 -1919 -1557 -110 -96 -274 -237
-363 -313 -89 -76 -219 -191 -289 -254 -70 -63 -259 -226 -419 -363 -161 -137
-297 -258 -303 -269 -16 -30 -12 -71 15 -128 32 -70 70 -117 128 -164 59 -46
88 -48 149 -9 57 36 464 382 685 582 89 80 234 209 324 285 89 76 235 201 323
277 341 294 930 779 1446 1192 427 341 511 410 554 454 l39 40 -17 46 c-33 85
-130 188 -221 232 l-40 20 -92 -71z"/>
<path d="M10756 11985 c4 -8 8 -15 10 -15 2 0 4 7 4 15 0 8 -4 15 -10 15 -5 0
-7 -7 -4 -15z"/>
<path d="M10760 11475 c0 -8 4 -15 10 -15 5 0 7 7 4 15 -4 8 -8 15 -10 15 -2
0 -4 -7 -4 -15z"/>
<path d="M10440 11180 c-9 -6 -10 -10 -3 -10 6 0 15 5 18 10 8 12 4 12 -15 0z"/>
<path d="M9870 10669 c0 -5 5 -7 10 -4 6 3 10 8 10 11 0 2 -4 4 -10 4 -5 0
-10 -5 -10 -11z"/>
<path d="M7430 9332 c-8 -4 -16 -14 -18 -22 -3 -11 3 -9 20 5 13 11 25 21 27
22 9 6 -15 1 -29 -5z"/>
<path d="M7391 9314 c0 -11 3 -14 6 -6 3 7 2 16 -1 19 -3 4 -6 -2 -5 -13z"/>
<path d="M7285 9250 c-3 -6 1 -7 9 -4 18 7 21 14 7 14 -6 0 -13 -4 -16 -10z"/>
<path d="M7321 9234 c0 -11 3 -14 6 -6 3 7 2 16 -1 19 -3 4 -6 -2 -5 -13z"/>
<path d="M6945 9210 c3 -5 13 -10 21 -10 8 0 14 5 14 10 0 6 -9 10 -21 10 -11
0 -17 -4 -14 -10z"/>
<path d="M7000 9068 c0 -7 5 -20 10 -28 8 -12 10 -9 10 13 0 15 -4 27 -10 27
-5 0 -10 -6 -10 -12z"/>
<path d="M7286 8988 c3 -5 10 -6 15 -3 13 9 11 12 -6 12 -8 0 -12 -4 -9 -9z"/>
<path d="M6290 8970 c0 -5 5 -10 11 -10 5 0 7 5 4 10 -3 6 -8 10 -11 10 -2 0
-4 -4 -4 -10z"/>
<path d="M7561 8854 c0 -11 3 -14 6 -6 3 7 2 16 -1 19 -3 4 -6 -2 -5 -13z"/>
<path d="M6095 8789 c-4 -5 -4 -13 -1 -16 3 -4 6 0 6 8 0 11 2 11 10 -1 6 -9
10 -10 10 -3 0 17 -17 25 -25 12z"/>
<path d="M6030 8670 c0 -5 5 -10 10 -10 6 0 10 5 10 10 0 6 -4 10 -10 10 -5 0
-10 -4 -10 -10z"/>
<path d="M4670 8241 c-187 -40 -396 -156 -710 -395 -258 -196 -369 -291 -610
-521 -187 -179 -363 -366 -523 -558 -461 -550 -692 -899 -758 -1150 -15 -53
-4 -100 23 -105 19 -4 143 89 193 143 17 18 129 118 250 221 121 104 274 236
340 294 66 58 190 164 274 235 85 72 241 204 346 295 105 91 315 269 465 395
395 332 542 459 744 640 176 157 393 345 457 395 31 25 32 27 18 54 -17 35
-57 50 -165 65 -109 16 -247 12 -344 -8z m43 -143 c22 -17 57 -102 57 -138 0
-16 -10 -39 -22 -52 -24 -25 -172 -134 -317 -233 -97 -66 -163 -117 -200 -152
-24 -23 -56 -29 -78 -15 -19 12 -73 95 -73 113 0 8 7 24 15 35 8 10 15 26 15
35 0 17 150 166 217 216 21 15 68 51 104 80 140 112 232 148 282 111z m-674
-555 c24 -20 37 -78 27 -117 -5 -22 -12 -26 -41 -26 -31 0 -39 6 -65 47 -17
26 -30 55 -30 64 0 45 68 65 109 32z m-125 -135 c16 -27 -14 -54 -43 -39 -21
11 -28 41 -14 55 12 12 45 2 57 -16z"/>
<path d="M5415 8208 c-11 -6 -28 -22 -37 -33 -10 -12 -57 -55 -105 -96 -48
-41 -117 -101 -153 -135 -36 -34 -90 -83 -120 -109 -129 -113 -183 -159 -316
-276 -77 -68 -196 -171 -265 -229 -68 -58 -240 -204 -383 -325 -142 -121 -322
-273 -400 -338 -239 -201 -397 -337 -486 -417 -134 -122 -478 -408 -533 -445
-42 -27 -445 -443 -464 -479 -22 -42 39 -121 155 -199 102 -70 162 -61 273 41
41 37 92 81 113 97 21 16 41 37 45 46 3 9 103 97 221 195 234 195 303 253 490
417 67 60 180 155 249 212 69 57 165 136 212 177 48 40 243 204 435 363 331
276 753 636 1037 885 73 64 194 178 270 254 l139 138 -11 45 c-7 24 -8 49 -5
56 4 7 4 9 -1 5 -11 -10 -46 32 -38 45 3 6 1 7 -5 3 -7 -4 -29 6 -49 23 -83
66 -222 107 -268 79z"/>
<path d="M5704 7638 c-74 -68 -154 -139 -177 -158 -23 -19 -145 -127 -272
-240 -227 -201 -447 -389 -610 -519 -45 -36 -161 -132 -256 -212 -96 -80 -200
-167 -232 -193 -66 -53 -73 -59 -172 -143 -38 -33 -140 -116 -225 -185 -167
-135 -168 -135 -366 -311 -81 -72 -138 -116 -145 -111 -7 4 -9 3 -5 -4 4 -6
-48 -55 -125 -119 -72 -59 -143 -118 -158 -130 -14 -11 -30 -19 -35 -16 -5 4
-6 1 -2 -5 7 -11 -32 -38 -47 -34 -5 1 -6 -1 -3 -6 3 -5 -23 -32 -57 -60 -34
-28 -87 -74 -117 -102 -30 -28 -65 -58 -77 -67 -40 -27 -30 -63 37 -135 32
-36 56 -69 52 -73 -4 -5 -2 -5 4 -2 6 3 27 -5 47 -18 62 -43 90 -35 187 50 47
41 168 143 268 226 101 83 271 226 377 319 106 92 280 239 387 326 106 87 265
219 354 294 88 74 266 221 393 325 295 241 520 429 735 614 93 80 201 172 240
204 108 89 225 207 248 251 33 64 22 186 -25 281 -26 53 -46 75 -69 75 -10 0
-79 -55 -154 -122z"/>
<path d="M6161 7284 c0 -11 3 -14 6 -6 3 7 2 16 -1 19 -3 4 -6 -2 -5 -13z"/>
<path d="M5971 7177 c-53 -51 -123 -115 -156 -142 -33 -28 -144 -124 -248
-213 -160 -139 -309 -263 -821 -681 -38 -31 -169 -139 -291 -241 -122 -102
-298 -247 -391 -322 -93 -76 -227 -187 -299 -248 -145 -124 -369 -310 -392
-325 -9 -5 -30 -23 -47 -40 -18 -16 -70 -61 -116 -98 -47 -38 -84 -71 -82 -73
6 -10 1 -25 -6 -20 -5 3 -8 -20 -6 -52 3 -71 6 -93 12 -87 3 2 12 -3 21 -13 9
-9 21 -17 26 -18 28 -1 84 -17 81 -23 -2 -3 41 -5 96 -3 119 3 128 7 262 116
54 45 127 104 160 131 34 28 154 129 266 226 113 96 277 233 365 304 88 71
214 174 280 230 66 55 203 168 305 250 102 82 244 196 315 254 135 109 351
288 491 407 45 38 158 133 252 212 93 78 173 149 176 158 19 49 -8 206 -55
314 -22 51 -59 90 -87 90 -8 0 -58 -42 -111 -93z"/>
<path d="M6170 7255 c0 -5 5 -17 10 -25 5 -8 10 -10 10 -5 0 6 -5 17 -10 25
-5 8 -10 11 -10 5z"/>
<path d="M6245 7089 c26 -80 32 -92 40 -79 5 8 4 15 -3 18 -6 2 -14 19 -18 38
-3 19 -11 37 -16 40 -6 4 -7 -2 -3 -17z"/>
<path d="M6187 6643 l-37 -37 -29 17 c-17 10 -32 13 -36 8 -3 -5 3 -14 12 -20
17 -10 17 -10 0 -11 -10 0 -15 -5 -12 -11 9 -14 -24 -49 -44 -48 -13 0 -14 2
-1 6 8 4 21 12 28 20 11 11 11 15 -2 28 -17 17 -29 5 -20 -19 3 -9 1 -16 -5
-16 -6 0 -11 5 -11 10 0 6 -5 10 -11 10 -6 0 -9 -7 -5 -15 5 -14 -5 -20 -27
-16 -5 1 -6 -3 -2 -8 3 -6 13 -8 23 -5 9 3 6 -2 -8 -10 -14 -8 -19 -15 -12
-16 10 0 10 -4 0 -20 -8 -13 -20 -19 -32 -16 -10 3 -26 -2 -34 -11 -15 -14
-14 -15 8 -8 21 7 19 2 -14 -33 -39 -41 -53 -46 -69 -27 -5 6 -7 3 -4 -6 6
-20 -40 -72 -55 -63 -6 4 -8 3 -5 -3 3 -5 -4 -18 -16 -28 -12 -10 -67 -57
-122 -105 -55 -47 -273 -225 -485 -395 -212 -170 -425 -343 -475 -385 -86 -73
-309 -254 -364 -295 -32 -24 -195 -160 -274 -229 -32 -28 -63 -50 -68 -48 -6
1 -7 -3 -3 -9 5 -9 2 -10 -9 -6 -10 4 -14 1 -12 -6 2 -7 -19 -31 -48 -55 -29
-23 -64 -52 -78 -65 -55 -46 -84 -67 -92 -67 -19 0 -52 -56 -57 -97 -3 -24 -3
-43 0 -44 3 0 14 -2 25 -5 83 -16 211 -25 329 -22 l139 3 31 36 c56 64 311
275 1091 901 708 569 980 798 989 831 23 85 12 378 -15 429 -15 28 -41 22 -82
-19z"/>
<path d="M5953 6495 c0 -8 4 -15 9 -15 4 0 8 7 8 15 0 8 -4 15 -8 15 -5 0 -9
-7 -9 -15z"/>
<path d="M5851 6436 c-10 -12 -8 -13 8 -9 12 3 21 9 21 14 0 14 -16 11 -29 -5z"/>
<path d="M5893 6425 c0 -8 4 -12 9 -9 4 3 8 9 8 15 0 5 -4 9 -8 9 -5 0 -9 -7
-9 -15z"/>
<path d="M6051 5861 c-23 -15 -57 -46 -77 -69 -20 -23 -40 -40 -45 -36 -5 3
-9 0 -9 -6 0 -16 -43 -30 -53 -16 -6 7 -7 6 -4 -4 2 -8 10 -14 16 -12 7 1 10
-2 6 -8 -3 -5 -13 -10 -21 -10 -8 0 -13 -4 -9 -9 3 -5 -4 -12 -15 -16 -11 -3
-20 -12 -20 -18 0 -13 -40 -43 -53 -39 -5 1 -6 -2 -2 -7 6 -11 -52 -58 -67
-53 -5 1 -7 -2 -4 -7 8 -13 -204 -202 -217 -194 -6 3 -7 1 -4 -4 4 -6 -8 -22
-26 -36 -17 -13 -43 -35 -57 -49 -54 -52 -137 -118 -143 -113 -4 3 -5 2 -3 -1
5 -6 -51 -54 -119 -101 -21 -16 -55 -43 -75 -60 -19 -18 -38 -33 -42 -33 -3 0
-20 -12 -37 -26 -17 -14 -36 -22 -42 -18 -7 4 -9 3 -6 -3 8 -13 -169 -146
-183 -138 -6 3 -13 -1 -16 -9 -9 -24 -112 -99 -125 -90 -7 4 -9 3 -6 -3 7 -10
-156 -143 -174 -143 -14 0 -10 -50 4 -56 7 -2 30 2 51 11 20 9 92 27 159 41
379 76 643 204 922 445 343 296 565 632 565 855 0 65 -13 71 -69 35z"/>
<path d="M5930 5785 c-11 -13 -10 -14 4 -9 9 3 16 10 16 15 0 13 -6 11 -20 -6z"/>
<path d="M4695 4760 c-3 -5 -1 -10 4 -10 6 0 11 5 11 10 0 6 -2 10 -4 10 -3 0
-8 -4 -11 -10z"/>
<path d="M4645 4719 c-4 -6 -5 -12 -2 -15 2 -3 7 2 10 11 7 17 1 20 -8 4z"/>
<path d="M3113 4553 c-15 -5 -18 -33 -4 -33 5 0 11 9 14 20 3 11 4 20 4 19 -1
0 -8 -3 -14 -6z"/>
<path d="M3140 4446 c0 -9 5 -16 10 -16 6 0 10 4 10 9 0 6 -4 13 -10 16 -5 3
-10 -1 -10 -9z"/>
<path d="M3645 4450 c3 -5 8 -10 11 -10 2 0 4 5 4 10 0 6 -5 10 -11 10 -5 0
-7 -4 -4 -10z"/>
<path d="M3520 4435 c0 -9 5 -15 11 -13 6 2 11 8 11 13 0 5 -5 11 -11 13 -6 2
-11 -4 -11 -13z"/>
<path d="M3730 4430 c-12 -8 -11 -10 8 -10 12 0 22 5 22 10 0 13 -11 13 -30 0z"/>
<path d="M4080 4429 c0 -5 5 -7 10 -4 6 3 10 8 10 11 0 2 -4 4 -10 4 -5 0 -10
-5 -10 -11z"/>
<path d="M2980 4420 c0 -5 4 -10 9 -10 6 0 13 5 16 10 3 6 -1 10 -9 10 -9 0
-16 -4 -16 -10z"/>
<path d="M3175 4410 c-3 -5 -1 -10 4 -10 6 0 11 5 11 10 0 6 -2 10 -4 10 -3 0
-8 -4 -11 -10z"/>
<path d="M3873 4413 c9 -2 23 -2 30 0 6 3 -1 5 -18 5 -16 0 -22 -2 -12 -5z"/>
<path d="M4210 4409 c0 -5 5 -7 10 -4 6 3 10 8 10 11 0 2 -4 4 -10 4 -5 0 -10
-5 -10 -11z"/>
<path d="M3025 4399 c-4 -6 -5 -12 -2 -15 2 -3 7 2 10 11 7 17 1 20 -8 4z"/>
<path d="M2840 4390 c0 -5 6 -10 14 -10 8 0 16 -5 18 -12 3 -7 7 -4 12 7 4 11
4 16 0 13 -4 -4 -15 -3 -25 3 -13 6 -19 6 -19 -1z"/>
<path d="M3106 4385 c-3 -8 -2 -15 3 -15 5 0 14 7 21 15 10 12 10 15 -3 15 -8
0 -17 -7 -21 -15z"/>
<path d="M2928 4378 c5 -5 16 -8 23 -6 8 3 3 7 -10 11 -17 4 -21 3 -13 -5z"/>
<path d="M3180 4359 c0 -18 2 -19 15 -9 15 12 12 30 -6 30 -5 0 -9 -10 -9 -21z"/>
<path d="M3205 4350 c-3 -5 3 -10 15 -10 12 0 18 5 15 10 -3 6 -10 10 -15 10
-5 0 -12 -4 -15 -10z"/>
<path d="M3350 4340 c-19 -12 -7 -22 21 -18 19 2 20 5 8 15 -9 7 -20 9 -29 3z"/>
<path d="M3250 4325 c-7 -9 -11 -18 -8 -21 7 -7 58 17 58 28 0 14 -37 9 -50
-7z"/>
<path d="M3097 4309 c4 -13 8 -18 11 -10 2 7 -1 18 -6 23 -8 8 -9 4 -5 -13z"/>
<path d="M3010 4310 c0 -5 5 -10 11 -10 5 0 7 5 4 10 -3 6 -8 10 -11 10 -2 0
-4 -4 -4 -10z"/>
<path d="M3055 4311 c-3 -5 -1 -12 5 -16 5 -3 10 1 10 9 0 18 -6 21 -15 7z"/>
<path d="M3128 4313 c7 -3 16 -2 19 1 4 3 -2 6 -13 5 -11 0 -14 -3 -6 -6z"/>
<path d="M3140 4285 c14 -7 27 -11 30 -9 6 7 -22 24 -40 23 -9 0 -5 -6 10 -14z"/>
<path d="M3194 4285 c8 -8 21 -15 28 -15 8 1 6 6 -6 15 -26 20 -42 19 -22 0z"/>
<path d="M3900 12051 c0 -6 4 -13 10 -16 6 -3 7 1 4 9 -7 18 -14 21 -14 7z"/>
<path d="M11120 10976 c0 -11 9 -16 26 -16 31 0 28 23 -4 28 -15 2 -22 -2 -22
-12z"/>
<path d="M11220 10950 c-1 -23 -2 -23 -10 -5 -5 11 -9 15 -9 9 -1 -7 6 -25 14
-40 12 -24 15 -26 16 -9 l0 20 9 -20 c6 -14 9 -15 9 -4 1 8 -3 19 -8 25 -5 5
-11 18 -14 29 -4 17 -5 16 -7 -5z"/>
<path d="M11204 10832 l-1 -67 9 52 c5 29 6 59 1 67 -5 9 -9 -11 -9 -52z"/>
<path d="M11153 10825 c-9 -25 4 -29 17 -6 7 15 7 21 0 21 -6 0 -13 -7 -17
-15z"/>
<path d="M11010 10752 c0 -5 7 -17 15 -28 14 -18 14 -18 15 9 0 17 -5 27 -15
27 -8 0 -15 -4 -15 -8z"/>
<path d="M11251 10734 c0 -11 3 -14 6 -6 3 7 2 16 -1 19 -3 4 -6 -2 -5 -13z"/>
<path d="M11021 10680 c0 -8 4 -22 9 -30 12 -18 12 -2 0 25 -6 13 -9 15 -9 5z"/>
<path d="M11070 10630 c0 -5 5 -10 10 -10 6 0 10 5 10 10 0 6 -4 10 -10 10 -5
0 -10 -4 -10 -10z"/>
<path d="M11020 10621 c0 -5 5 -13 10 -16 6 -3 10 -2 10 4 0 5 -4 13 -10 16
-5 3 -10 2 -10 -4z"/>
<path d="M11020 10551 c0 -6 4 -13 10 -16 6 -3 7 1 4 9 -7 18 -14 21 -14 7z"/>
<path d="M10620 10509 c0 -5 5 -7 10 -4 6 3 10 8 10 11 0 2 -4 4 -10 4 -5 0
-10 -5 -10 -11z"/>
<path d="M11027 10143 c-4 -3 -7 -11 -7 -17 0 -6 5 -5 12 2 6 6 9 14 7 17 -3
3 -9 2 -12 -2z"/>
<path d="M10090 10099 c0 -5 -4 -8 -9 -5 -5 3 -12 -1 -15 -9 -4 -13 -2 -14 14
-5 18 10 28 30 15 30 -3 0 -5 -5 -5 -11z"/>
<path d="M10959 10058 c-5 -19 -4 -48 2 -48 11 0 18 39 8 46 -5 3 -9 4 -10 2z"/>
<path d="M10991 10014 c0 -11 3 -14 6 -6 3 7 2 16 -1 19 -3 4 -6 -2 -5 -13z"/>
<path d="M10947 9969 c-3 -11 -1 -17 5 -13 7 4 8 -5 3 -27 -7 -30 -6 -32 9
-17 9 9 16 28 16 41 0 31 -26 43 -33 16z"/>
<path d="M10960 9850 c0 -5 5 -10 10 -10 6 0 10 5 10 10 0 6 -4 10 -10 10 -5
0 -10 -4 -10 -10z"/>
<path d="M10886 9784 c-4 -9 -4 -19 -1 -22 2 -3 7 3 11 12 4 9 4 19 1 22 -2 3
-7 -3 -11 -12z"/>
<path d="M10941 9783 c-1 -6 -4 -20 -7 -30 -5 -17 -5 -17 6 0 6 10 9 23 6 30
-3 9 -5 9 -5 0z"/>
<path d="M10867 9690 c3 -11 7 -20 9 -20 2 0 4 9 4 20 0 11 -4 20 -9 20 -5 0
-7 -9 -4 -20z"/>
<path d="M10920 9680 c0 -5 5 -10 11 -10 5 0 7 5 4 10 -3 6 -8 10 -11 10 -2 0
-4 -4 -4 -10z"/>
<path d="M10836 9651 c-4 -7 -5 -15 -2 -18 9 -9 19 4 14 18 -4 11 -6 11 -12 0z"/>
<path d="M10860 9636 c0 -9 5 -16 10 -16 6 0 10 4 10 9 0 6 -4 13 -10 16 -5 3
-10 -1 -10 -9z"/>
<path d="M10820 9590 c0 -19 3 -21 12 -12 9 9 9 15 0 24 -9 9 -12 7 -12 -12z"/>
<path d="M10856 9583 c-4 -9 -2 -21 4 -27 7 -7 10 -2 10 17 0 31 -5 34 -14 10z"/>
<path d="M10907 9593 c-4 -3 -7 -13 -7 -20 0 -12 3 -12 15 1 8 8 15 17 15 20
0 8 -15 7 -23 -1z"/>
<path d="M10871 9546 c-8 -10 -9 -16 -1 -21 5 -3 13 1 16 10 9 22 -1 29 -15
11z"/>
<path d="M10891 9504 c0 -11 3 -14 6 -6 3 7 2 16 -1 19 -3 4 -6 -2 -5 -13z"/>
<path d="M9995 9341 c-3 -5 -2 -12 3 -15 5 -3 9 1 9 9 0 17 -3 19 -12 6z"/>
<path d="M10723 9271 c1 -15 4 -17 14 -9 7 5 10 14 7 19 -10 16 -23 9 -21 -10z"/>
<path d="M8455 8685 c-16 -13 -25 -24 -20 -24 16 0 50 23 53 37 3 16 2 16 -33
-13z"/>
<path d="M9560 8570 c0 -5 5 -10 10 -10 6 0 10 5 10 10 0 6 -4 10 -10 10 -5 0
-10 -4 -10 -10z"/>
<path d="M8868 8503 c7 -3 16 -2 19 1 4 3 -2 6 -13 5 -11 0 -14 -3 -6 -6z"/>
<path d="M9376 14204 c-9 -24 -2 -26 12 -4 7 11 8 20 3 20 -5 0 -12 -7 -15
-16z"/>
<path d="M8758 14123 c7 -3 16 -2 19 1 4 3 -2 6 -13 5 -11 0 -14 -3 -6 -6z"/>
<path d="M8745 14091 c-6 -10 51 -30 63 -22 6 4 -5 11 -24 17 -19 6 -36 8 -39
5z"/>
<path d="M8811 13761 c-8 -5 -9 -11 -3 -15 5 -3 12 1 16 9 6 17 6 18 -13 6z"/>
<path d="M5520 11715 c0 -8 5 -15 10 -15 6 0 10 7 10 15 0 8 -4 15 -10 15 -5
0 -10 -7 -10 -15z"/>
<path d="M5280 11669 c0 -5 5 -7 10 -4 6 3 10 8 10 11 0 2 -4 4 -10 4 -5 0
-10 -5 -10 -11z"/>
<path d="M5322 11660 c-10 -16 -10 -20 1 -20 14 0 37 20 37 32 0 16 -25 8 -38
-12z"/>
<path d="M5385 11670 c3 -5 8 -10 11 -10 2 0 4 5 4 10 0 6 -5 10 -11 10 -5 0
-7 -4 -4 -10z"/>
<path d="M5240 11591 c0 -17 18 -21 24 -6 3 9 0 15 -9 15 -8 0 -15 -4 -15 -9z"/>
<path d="M4700 11237 c0 -9 -4 -17 -10 -17 -5 0 -10 -4 -10 -10 0 -5 4 -10 9
-10 12 0 25 39 17 47 -3 4 -6 -1 -6 -10z"/>
<path d="M4240 10871 c0 -11 26 -22 34 -14 12 12 5 23 -14 23 -11 0 -20 -4
-20 -9z"/>
<path d="M14342 8557 c-100 -164 -243 -501 -265 -624 -8 -42 18 -67 39 -38 8
10 14 27 14 36 0 58 139 392 226 546 38 66 44 85 42 123 l-3 45 -53 -88z"/>
<path d="M11505 7440 c-120 -39 -243 -127 -335 -239 -56 -69 -67 -87 -112
-186 -91 -203 -91 -434 0 -584 154 -254 398 -371 772 -372 158 0 221 11 282
50 91 58 153 163 223 376 77 234 82 315 27 427 -44 88 -146 221 -255 331 -167
167 -270 217 -446 216 -66 0 -115 -6 -156 -19z m280 -45 c91 -24 160 -70 276
-186 165 -165 273 -320 285 -411 17 -122 -119 -506 -212 -602 -46 -47 -78 -63
-155 -75 -83 -14 -230 -14 -209 -1 8 5 30 10 48 10 17 0 32 4 32 9 0 5 8 12
18 14 15 4 15 5 0 6 -9 0 -20 -3 -23 -9 -3 -5 -11 -10 -16 -10 -5 0 14 20 43
44 38 31 57 40 66 33 8 -6 12 -6 12 2 0 7 7 19 15 28 9 8 19 28 22 44 3 16 9
29 13 29 5 0 6 10 4 23 -4 20 -3 19 6 -3 11 -24 12 -24 26 -6 18 26 18 40 -1
32 -20 -7 -19 8 1 24 23 20 14 64 -13 68 -13 2 -23 10 -23 18 0 11 -6 13 -21
9 -15 -5 -19 -4 -15 4 15 23 -6 33 -28 13 -29 -27 -61 -42 -86 -42 -13 0 -20
-5 -18 -12 3 -7 -13 -21 -34 -31 -21 -11 -38 -23 -38 -28 0 -5 -5 -9 -11 -9
-6 0 -22 -9 -36 -20 -14 -11 -29 -17 -34 -14 -5 3 -9 1 -9 -4 0 -5 -23 -12
-51 -16 -28 -4 -58 -11 -67 -16 -10 -5 -34 -12 -54 -15 -21 -3 -44 -12 -52
-20 -8 -8 -26 -15 -39 -15 -27 0 -50 -20 -39 -36 11 -16 63 -35 75 -28 7 4 7
2 -1 -7 -11 -12 -23 -9 -80 20 -92 47 -225 182 -270 272 -61 127 -65 279 -11
444 55 164 122 261 249 360 142 110 304 149 455 110z m-368 -1177 c-3 -8 -6
-5 -6 6 -1 11 2 17 5 13 3 -3 4 -12 1 -19z m200 -84 c-3 -3 -12 -4 -19 -1 -8
3 -5 6 6 6 11 1 17 -2 13 -5z"/>
<path d="M11921 6204 c0 -11 3 -14 6 -6 3 7 2 16 -1 19 -3 4 -6 -2 -5 -13z"/>
<path d="M13291 6394 c-1 -6 5 -17 12 -23 10 -8 14 -7 14 4 0 8 -4 12 -8 9 -4
-2 -10 2 -12 8 -4 8 -6 9 -6 2z"/>
<path d="M13920 6100 c0 -6 7 -10 15 -10 8 0 15 2 15 4 0 2 -7 6 -15 10 -8 3
-15 1 -15 -4z"/>
<path d="M13947 6056 c10 -13 21 -22 26 -19 4 2 7 -2 8 -9 0 -7 5 -3 11 10 13
26 12 27 -30 35 l-33 7 18 -24z"/>
<path d="M14259 6017 c-15 -11 -15 -15 -3 -31 10 -15 14 -16 18 -5 3 11 5 50
2 49 -1 0 -8 -6 -17 -13z"/>
<path d="M14266 5953 c-14 -14 -4 -31 54 -91 54 -55 80 -74 80 -56 0 3 -25 31
-55 62 -30 31 -55 62 -55 69 0 15 -15 25 -24 16z"/>
<path d="M12281 4384 c0 -11 3 -14 6 -6 3 7 2 16 -1 19 -3 4 -6 -2 -5 -13z"/>
<path d="M11925 4290 c-3 -5 1 -10 10 -10 9 0 13 5 10 10 -3 6 -8 10 -10 10
-2 0 -7 -4 -10 -10z"/>
<path d="M8495 2310 c-3 -5 1 -10 10 -10 9 0 13 5 10 10 -3 6 -8 10 -10 10 -2
0 -7 -4 -10 -10z"/>
<path d="M8145 2017 c-27 -15 -43 -33 -49 -54 -6 -17 -17 -34 -27 -36 -30 -8
-51 -51 -39 -81 23 -62 77 -41 171 66 83 94 88 121 24 126 -27 1 -53 -5 -80
-21z"/>
<path d="M5878 1833 c7 -3 16 -2 19 1 4 3 -2 6 -13 5 -11 0 -14 -3 -6 -6z"/>
<path d="M6030 1824 c0 -8 5 -12 10 -9 6 3 10 10 10 16 0 5 -4 9 -10 9 -5 0
-10 -7 -10 -16z"/>
<path d="M8928 1765 c-48 -12 -62 -20 -110 -64 -22 -20 -30 -22 -42 -12 -31
26 -76 -16 -76 -70 0 -11 -7 -30 -15 -43 -9 -13 -22 -77 -31 -147 -8 -68 -21
-158 -28 -199 -8 -41 -12 -87 -9 -102 14 -72 87 -73 98 -1 3 21 15 56 25 78
11 22 24 82 29 133 12 106 35 158 92 204 19 16 51 31 71 34 32 6 36 4 49 -27
18 -43 18 -190 0 -281 -15 -75 -10 -112 15 -122 20 -8 52 19 66 54 5 14 21 79
35 145 61 290 -8 461 -169 420z"/>
<path d="M8453 1660 c-18 -4 -43 -14 -55 -22 -13 -9 -38 -19 -57 -23 -27 -6
-37 -16 -58 -59 -13 -28 -34 -68 -45 -89 -44 -82 -74 -258 -56 -323 14 -52 74
-110 121 -119 55 -11 122 18 177 74 52 53 134 228 152 321 12 67 5 153 -16
186 -29 44 -104 69 -163 54z m84 -116 c-7 -7 -37 7 -37 17 0 6 9 5 21 -1 11
-7 19 -14 16 -16z m-53 -90 c21 -20 21 -96 0 -140 -16 -34 -68 -74 -97 -74 -9
0 -25 12 -37 27 -17 22 -20 35 -15 68 14 94 15 96 59 116 50 23 70 24 90 3z
m-111 -326 c-5 -10 -55 -10 -69 0 -11 7 -34 45 -34 56 0 3 24 -7 53 -22 30
-15 52 -30 50 -34z"/>
<path d="M6196 465 c-9 -26 -7 -32 5 -12 6 10 9 21 6 23 -2 3 -7 -2 -11 -11z"/>
</g>
</svg>
